<svg xmlns="http://www.w3.org/2000/svg" xmlns:xlink="http://www.w3.org/1999/xlink" viewBox="0 0 524.15 673.25"><defs><style>.cls-1{fill:#f8ca46;}.cls-2{clip-path:url(#clip-path);}.cls-3{fill:url(#Dégradé_sans_nom_7);}.cls-4{fill:#2c8e9f;}.cls-5{fill:#428faf;}</style><clipPath id="clip-path"><path class="cls-1" d="M254.58,200.56C238.07,173.44,197.87,138.3,144,147.08c-62.14,10.13-104,69.6-93.88,131.7,3.82,23.46,15.38,43.74,32.92,61.05,69.12,68.07,150,80.32,225.61,192.3,36.16-130.2,108.88-167.48,152.87-254,11.13-22,15.6-44.88,11.78-68.33-10.12-62.1-68.7-105.21-130.79-95.09-53.93,8.79-80.94,54.89-87.9,85.83"/></clipPath><linearGradient id="Dégradé_sans_nom_7" x1="277.84" y1="527.89" x2="277.84" y2="121.37" gradientTransform="translate(-1.95 6.9)" gradientUnits="userSpaceOnUse"><stop offset="0" stop-color="#f8ca46"/><stop offset="0.11" stop-color="#fad66f"/><stop offset="0.36" stop-color="#fdf3d6"/><stop offset="0.45" stop-color="#fff"/><stop offset="0.51" stop-color="#fffdf8"/><stop offset="0.6" stop-color="#fef7e4"/><stop offset="0.7" stop-color="#fdeec5"/><stop offset="0.82" stop-color="#fbe298"/><stop offset="0.95" stop-color="#f9d160"/><stop offset="1" stop-color="#f8ca46"/></linearGradient></defs><title>Fichier 1</title><g id="Calque_2" data-name="Calque 2"><g id="Calque_1-2" data-name="Calque 1"><path class="cls-1" d="M162.38,548.44c-31.17,5.08-58.33,33.62-51.93,72.93,6.21,38.12,45.36,56.06,76,51.06,33.75-5.5,48.3-18.72,77.69-17.6,23,.86,36.76,9.77,43.66,14.53,3.3,2.24,7,2,9.18-.07s3.37-5.38.5-12.49c-6.68-16.53-19-34.24-32.25-48.9-26.1-28.81-75.78-67.13-122.88-59.46"/><path class="cls-1" d="M451,501.42c31.19-5.09,66,13.35,72.4,52.66,6.22,38.12-25.22,67.56-55.88,72.56-33.74,5.5-51.76-2.41-79.25,8-21.52,8.11-31.76,20.94-36.8,27.64-2.41,3.18-6,4.08-8.72,2.85s-4.92-4-4.44-11.68c1.09-17.8,7.11-38.49,15-56.61,15.61-35.6,50.54-87.72,97.65-95.39"/><path class="cls-1" d="M254.58,200.56C238.07,173.44,197.87,138.3,144,147.08c-62.14,10.13-104,69.6-93.88,131.7,3.82,23.46,15.38,43.74,32.92,61.05,69.12,68.07,150,80.32,225.61,192.3,36.16-130.2,108.88-167.48,152.87-254,11.13-22,15.6-44.88,11.78-68.33-10.12-62.1-68.7-105.21-130.79-95.09-53.93,8.79-80.94,54.89-87.9,85.83"/><g class="cls-2"><rect class="cls-3" x="61.51" y="128.27" width="428.76" height="406.52" transform="translate(-49.73 48.69) rotate(-9.26)"/></g><rect class="cls-4" x="163.84" y="220.34" width="13.57" height="57.74" transform="translate(-37.86 30.69) rotate(-9.26)"/><polygon class="cls-4" points="200.91 215.02 214.23 212.85 221.62 258.19 239.92 255.21 241.82 266.85 210.2 272.01 200.91 215.02"/><polygon class="cls-4" points="275.61 202.85 289.87 200.53 302.26 236.96 302.65 198.44 317.11 196.08 311.94 255.43 298.78 257.57 275.61 202.85"/><polygon class="cls-4" points="321.79 195.32 354.26 190.03 356.13 201.51 336.94 204.64 338.65 215.14 356.54 212.22 358.35 223.33 340.46 226.25 342.45 238.5 361.65 235.37 363.55 247.01 331.08 252.31 321.79 195.32"/><rect class="cls-4" x="214.49" y="283.91" width="17.21" height="73.2" transform="translate(-48.65 40.06) rotate(-9.26)"/><polygon class="cls-4" points="232.32 281.92 273.5 275.21 275.87 289.77 251.53 293.74 253.7 307.05 276.38 303.35 278.68 317.44 255.99 321.13 258.52 336.67 282.87 332.7 285.27 347.46 244.1 354.17 232.32 281.92"/><polygon class="cls-4" points="375.4 258.61 416.57 251.9 418.94 266.45 394.6 270.42 396.77 283.73 419.46 280.03 421.75 294.12 399.07 297.81 401.6 313.35 425.94 309.39 428.35 324.15 387.17 330.86 375.4 258.61"/><polygon class="cls-5" points="191.46 375.6 211.85 372.28 213.05 379.65 201.19 381.59 202.43 389.2 213.4 387.41 214.56 394.55 203.59 396.34 205.95 410.83 197.42 412.22 191.46 375.6"/><polygon class="cls-5" points="214.93 371.78 235.8 368.38 237 375.75 224.67 377.76 225.77 384.51 237.26 382.63 238.43 389.77 226.93 391.65 228.21 399.52 240.55 397.51 241.77 404.99 220.9 408.39 214.93 371.78"/><polygon class="cls-5" points="261.18 364.24 284.31 360.47 285.52 367.9 278.09 369.11 282.85 398.3 274.32 399.69 269.56 370.5 262.39 371.67 261.18 364.24"/><rect class="cls-5" x="291.73" y="358.79" width="8.72" height="37.1" transform="translate(-56.84 52.54) rotate(-9.26)"/><polygon class="cls-5" points="299.91 357.93 309.07 356.43 317.04 379.85 317.29 355.1 326.58 353.58 323.25 391.71 314.8 393.09 299.91 357.93"/><path class="cls-5" d="M337.44,362.08l-.27,13.16,4.64-.75Zm-5.7-9.34,8.48-1.38,15.61,35-9.29,1.52-2.49-7.06L337,382l-.15,7.49-8.74,1.43Z"/><polygon class="cls-5" points="353.13 349.25 361.69 347.86 366.44 376.99 378.19 375.08 379.42 382.56 359.1 385.87 353.13 349.25"/><path class="cls-4" d="M256.89,217.26c-2.67.44-4.47,2.31-5.38,5.62s-.94,7.63-.07,13,2.27,9.56,4.15,12.43,4,4.1,6.45,3.7,4.06-2.29,5-5.71,1-7.79.09-13.1q-1.35-8.25-4.25-12.33t-6-3.58m-3.39-11.77q10.33-1.69,17.57,5.14T280.51,231q2.21,13.56-2.48,22.6T263.78,264.2a17.51,17.51,0,0,1-16.72-5.87q-6.81-7.5-8.84-20a43.58,43.58,0,0,1,.12-16,23.32,23.32,0,0,1,5.73-11.67,16.71,16.71,0,0,1,9.43-5.2"/><path class="cls-4" d="M127.63,351q9.6,6.42,17,5.21a9.47,9.47,0,0,0,6.08-3.49,7.78,7.78,0,0,0,1.73-6.35,7.4,7.4,0,0,0-2.73-4.66c-1.54-1.23-4.26-2.46-8.14-3.68a37.35,37.35,0,0,1-13-6.47,17.28,17.28,0,0,1-6-11,20.7,20.7,0,0,1,3.84-16.22q5.31-7.2,15.72-8.91a34,34,0,0,1,15.49,1.41L160.53,314q-7.91-5.46-14.17-4.44a8.37,8.37,0,0,0-5.09,2.74,5.73,5.73,0,0,0-1.54,4.88,6.13,6.13,0,0,0,2.59,4.15,22.83,22.83,0,0,0,7.39,2.94q8.72,2.31,13.68,6.28t6.26,12a23.49,23.49,0,0,1-4.43,18.32,24.6,24.6,0,0,1-16.48,10q-8.09,1.31-18.2-2Z"/><path class="cls-4" d="M214.22,357.18a28.49,28.49,0,0,1-11.43,4.9q-12.18,2-21.1-7.46t-11.51-25.25a55.72,55.72,0,0,1,.08-18.94A30.83,30.83,0,0,1,177.55,295a23.31,23.31,0,0,1,14-7.62,27.67,27.67,0,0,1,11.47.85l2.69,16.52q-4.75-3.37-9.46-2.61-5.86,1-8.29,7.41t-.61,17.65q1.58,9.58,5.9,14.8t9.93,4.31q4.08-.66,8.43-5.36Z"/><path class="cls-4" d="M279.56,274.23l17.14-2.8,12,21.55q5.34,9.61,8.52,16.74l.88-.14-2.4-12.16-4.62-28.33,16.16-2.63L339,338.71l-17.09,2.79-12-21.55q-5.34-9.61-8.53-16.8l-.94.16,2.41,12.15,4.62,28.38-16.15,2.64Z"/><path class="cls-4" d="M381.5,329.92a28.23,28.23,0,0,1-11.42,4.89q-12.18,2-21.11-7.46t-11.5-25.24a55.46,55.46,0,0,1,.08-18.94,30.71,30.71,0,0,1,7.29-15.46,23.26,23.26,0,0,1,14-7.62,27.43,27.43,0,0,1,11.46.84L373,277.46q-4.74-3.37-9.46-2.61-5.85,1-8.28,7.41t-.61,17.65q1.56,9.57,5.9,14.8t9.92,4.31q4.09-.66,8.43-5.36Z"/><path class="cls-5" d="M243.88,393.41c3.25,2.17,6.12,3,8.62,2.64a4.78,4.78,0,0,0,3.08-1.77,3.93,3.93,0,0,0,.88-3.22,3.77,3.77,0,0,0-1.38-2.36,13.73,13.73,0,0,0-4.13-1.87,18.75,18.75,0,0,1-6.57-3.28,8.74,8.74,0,0,1-3-5.59,10.5,10.5,0,0,1,1.95-8.21,11.78,11.78,0,0,1,8-4.52,17.19,17.19,0,0,1,7.85.72l1.42,8.74q-4-2.78-7.18-2.25a4.22,4.22,0,0,0-2.58,1.39,2.93,2.93,0,0,0-.78,2.47,3.13,3.13,0,0,0,1.31,2.1,11.6,11.6,0,0,0,3.75,1.49,18.47,18.47,0,0,1,6.93,3.19,9.43,9.43,0,0,1,3.18,6.08,11.89,11.89,0,0,1-2.25,9.28,12.44,12.44,0,0,1-8.35,5.06,19.51,19.51,0,0,1-9.22-1Z"/><path class="cls-4" d="M461.38,278.21c-44,86.5-116.71,123.78-152.86,254C232.85,420.22,152,408,82.91,339.89c-17.54-17.31-29.1-37.59-32.92-61-10.12-62.11,31.74-121.58,93.88-131.7,53.9-8.79,94.1,26.36,110.61,53.47,7-30.94,34-77,87.9-85.82,62.08-10.12,120.66,33,130.79,95.08,3.82,23.45-.65,46.35-11.79,68.33M338.57,67.7a149.59,149.59,0,0,0-43.58,14l-9.1-55.81.55-.09a13.45,13.45,0,0,0,10.5-15.09A12.79,12.79,0,0,0,282.26.17L167.61,18.85a12.79,12.79,0,0,0-10.56,14.68,13.39,13.39,0,0,0,13.84,11l9.2,56.46a148.88,148.88,0,0,0-47.59.27C51.1,114.55-13,191.54,2.28,285.6,9,326.79,30.63,355.43,49.21,374.86c21.18,22.12,47.2,40.06,87.52,65,58.61,36.18,107.9,72.78,162,151.26,4.34,6.25,12.4,12.82,21.23,11.38S334.3,592.29,336.42,585C362.89,493.37,398,443,442,390.11c30.34-36.46,49.34-61.74,62.35-89.43,11.47-24.33,22.9-58.36,16.19-99.55C505.25,107.07,420,54.43,338.57,67.7"/></g></g></svg>