<svg xmlns="http://www.w3.org/2000/svg" xmlns:xlink="http://www.w3.org/1999/xlink" viewBox="0 0 202.39 147.11"><defs><style>.cls-1,.cls-3{fill:none;}.cls-2{fill:#00945d;}.cls-3{stroke:#fff;stroke-linejoin:bevel;stroke-width:0.59px;}.cls-4{clip-path:url(#clip-path);}</style><clipPath id="clip-path" transform="translate(0 0)"><rect class="cls-1" width="202.39" height="147.11"/></clipPath></defs><title>logo_big_1</title><g id="Calque_2" data-name="Calque 2"><g id="Calque_1-2" data-name="Calque 1"><rect class="cls-2" x="61.06" y="62.2" width="11.35" height="48.28" transform="translate(-13.02 11.86) rotate(-9.26)"/><rect class="cls-3" x="61.06" y="62.2" width="11.35" height="48.28" transform="translate(-13.02 11.86) rotate(-9.26)"/><g class="cls-4"><path class="cls-2" d="M60.88,110.53a18.65,18.65,0,0,1-7.54,3.22q-8,1.32-13.91-4.92T31.84,92.19a36.6,36.6,0,0,1,.05-12.49A20.3,20.3,0,0,1,36.7,69.5a15.37,15.37,0,0,1,9.21-5,18.25,18.25,0,0,1,7.56.56l1.77,10.9A8.22,8.22,0,0,0,49,74.21q-3.86.63-5.46,4.89t-.4,11.63q1,6.31,3.89,9.77c1.9,2.29,4.09,3.24,6.54,2.84,1.8-.29,3.66-1.47,5.56-3.54Z" transform="translate(0 0)"/><path class="cls-3" d="M60.88,110.53a18.65,18.65,0,0,1-7.54,3.22q-8,1.32-13.91-4.92T31.84,92.19a36.6,36.6,0,0,1,.05-12.49A20.3,20.3,0,0,1,36.7,69.5a15.37,15.37,0,0,1,9.21-5,18.25,18.25,0,0,1,7.56.56l1.77,10.9A8.22,8.22,0,0,0,49,74.21q-3.86.63-5.46,4.89t-.4,11.63q1,6.31,3.89,9.77c1.9,2.29,4.09,3.24,6.54,2.84,1.8-.29,3.66-1.47,5.56-3.54Z" transform="translate(0 0)"/><path class="cls-2" d="M3.78,106.44q6.33,4.23,11.22,3.43a6.25,6.25,0,0,0,4-2.3,5.11,5.11,0,0,0,1.14-4.18,4.89,4.89,0,0,0-1.8-3.08A17.79,17.79,0,0,0,13,97.88a24.56,24.56,0,0,1-8.55-4.27A11.38,11.38,0,0,1,.5,86.34,13.64,13.64,0,0,1,3,75.65q3.5-4.75,10.37-5.88a22.35,22.35,0,0,1,10.21.93l1.86,11.38q-5.22-3.61-9.35-2.93A5.46,5.46,0,0,0,12.78,81a3.78,3.78,0,0,0-1,3.22,4.05,4.05,0,0,0,1.7,2.74,15.12,15.12,0,0,0,4.88,1.94,24.19,24.19,0,0,1,9,4.14,12.28,12.28,0,0,1,4.13,7.92A15.46,15.46,0,0,1,28.57,113a16.15,16.15,0,0,1-10.87,6.57,25.2,25.2,0,0,1-12-1.34Z" transform="translate(0 0)"/><path class="cls-3" d="M3.78,106.44q6.33,4.23,11.22,3.43a6.25,6.25,0,0,0,4-2.3,5.11,5.11,0,0,0,1.14-4.18,4.89,4.89,0,0,0-1.8-3.08A17.79,17.79,0,0,0,13,97.88a24.56,24.56,0,0,1-8.55-4.27A11.38,11.38,0,0,1,.5,86.34,13.64,13.64,0,0,1,3,75.65q3.5-4.75,10.37-5.88a22.35,22.35,0,0,1,10.21.93l1.86,11.38q-5.22-3.61-9.35-2.93A5.46,5.46,0,0,0,12.78,81a3.78,3.78,0,0,0-1,3.22,4.05,4.05,0,0,0,1.7,2.74,15.12,15.12,0,0,0,4.88,1.94,24.19,24.19,0,0,1,9,4.14,12.28,12.28,0,0,1,4.13,7.92A15.46,15.46,0,0,1,28.57,113a16.15,16.15,0,0,1-10.87,6.57,25.2,25.2,0,0,1-12-1.34Z" transform="translate(0 0)"/></g><polygon class="cls-2" points="72.82 60.89 99.98 56.47 101.54 66.07 85.49 68.68 86.92 77.46 101.88 75.02 103.39 84.31 88.43 86.75 90.1 97 106.16 94.38 107.74 104.12 80.59 108.54 72.82 60.89"/><polygon class="cls-3" points="72.82 60.89 99.98 56.47 101.54 66.07 85.49 68.68 86.92 77.46 101.88 75.02 103.39 84.31 88.43 86.75 90.1 97 106.16 94.38 107.74 104.12 80.59 108.54 72.82 60.89"/><g class="cls-4"><path class="cls-2" d="M104,55.82,115.28,54l7.89,14.22q3.52,6.33,5.62,11l.58-.1-1.58-8-3.05-18.69L135.4,50.7l7.77,47.64-11.28,1.84L124,86q-3.52-6.33-5.62-11.08l-.62.1,1.59,8,3.05,18.72-10.66,1.74Z" transform="translate(0 0)"/><path class="cls-3" d="M104,55.82,115.28,54l7.89,14.22q3.52,6.33,5.62,11l.58-.1-1.58-8-3.05-18.69L135.4,50.7l7.77,47.64-11.28,1.84L124,86q-3.52-6.33-5.62-11.08l-.62.1,1.59,8,3.05,18.72-10.66,1.74Z" transform="translate(0 0)"/><path class="cls-2" d="M171.21,92.55a18.77,18.77,0,0,1-7.54,3.22q-8,1.32-13.92-4.92t-7.58-16.64a36.35,36.35,0,0,1,.05-12.49,20.29,20.29,0,0,1,4.8-10.2,15.43,15.43,0,0,1,9.21-5,18.23,18.23,0,0,1,7.56.56L165.57,58a8.24,8.24,0,0,0-6.24-1.72q-3.87.63-5.46,4.89t-.41,11.63q1,6.31,3.89,9.76t6.55,2.85q2.7-.44,5.56-3.54Z" transform="translate(0 0)"/><path class="cls-3" d="M171.21,92.55a18.77,18.77,0,0,1-7.54,3.22q-8,1.32-13.92-4.92t-7.58-16.64a36.35,36.35,0,0,1,.05-12.49,20.29,20.29,0,0,1,4.8-10.2,15.43,15.43,0,0,1,9.21-5,18.23,18.23,0,0,1,7.56.56L165.57,58a8.24,8.24,0,0,0-6.24-1.72q-3.87.63-5.46,4.89t-.41,11.63q1,6.31,3.89,9.76t6.55,2.85q2.7-.44,5.56-3.54Z" transform="translate(0 0)"/></g><polygon class="cls-2" points="167.18 45.52 174.94 93.17 202.1 88.74 200.51 79 184.46 81.62 182.79 71.37 197.75 68.94 196.24 59.65 181.28 62.08 179.84 53.31 195.9 50.69 194.33 41.09 167.18 45.52"/><g class="cls-4"><polygon class="cls-3" points="167.18 45.52 194.33 41.09 195.9 50.69 179.84 53.31 181.28 62.09 196.24 59.65 197.75 68.94 182.79 71.37 184.46 81.62 200.51 79 202.1 88.74 174.94 93.17 167.18 45.52"/></g><rect class="cls-2" x="27.66" y="20.28" width="8.95" height="38.08" transform="translate(-5.91 5.68) rotate(-9.26)"/><rect class="cls-3" x="27.66" y="20.28" width="8.95" height="38.08" transform="translate(-5.91 5.68) rotate(-9.26)"/><polygon class="cls-2" points="52.11 16.77 60.89 15.34 65.77 45.24 77.83 43.28 79.09 50.96 58.23 54.35 52.11 16.77"/><polygon class="cls-3" points="52.11 16.77 60.89 15.34 65.77 45.24 77.83 43.28 79.09 50.96 58.23 54.35 52.11 16.77"/><g class="cls-4"><path class="cls-2" d="M86.79,10.49a13,13,0,0,1,11.59,3.39q4.77,4.5,6.22,13.42T103,42.21a12.4,12.4,0,0,1-9.4,7,11.56,11.56,0,0,1-11-3.87q-4.49-4.94-5.83-13.18a28.8,28.8,0,0,1,.08-10.54,15.41,15.41,0,0,1,3.78-7.69,11,11,0,0,1,6.22-3.43M89,18.25c-1.76.29-2.94,1.52-3.54,3.71a20.46,20.46,0,0,0,0,8.55,21.72,21.72,0,0,0,2.73,8.19c1.24,1.9,2.66,2.71,4.26,2.45s2.68-1.52,3.29-3.77a20.78,20.78,0,0,0,.05-8.64q-.89-5.44-2.8-8.13T89,18.25" transform="translate(0 0)"/><path class="cls-3" d="M86.79,10.49a13,13,0,0,1,11.59,3.39q4.77,4.5,6.22,13.42T103,42.21a12.4,12.4,0,0,1-9.4,7,11.56,11.56,0,0,1-11-3.87q-4.49-4.94-5.83-13.18a28.8,28.8,0,0,1,.08-10.54,15.41,15.41,0,0,1,3.78-7.69,11,11,0,0,1,6.22-3.43M89,18.25c-1.76.29-2.94,1.52-3.54,3.71a20.46,20.46,0,0,0,0,8.55,21.72,21.72,0,0,0,2.73,8.19c1.24,1.9,2.66,2.71,4.26,2.45s2.68-1.52,3.29-3.77a20.78,20.78,0,0,0,.05-8.64q-.89-5.44-2.8-8.13T89,18.25" transform="translate(0 0)"/></g><polygon class="cls-2" points="101.37 8.74 110.77 7.21 118.95 31.24 119.2 5.84 128.74 4.28 125.33 43.42 116.65 44.83 101.37 8.74"/><polygon class="cls-3" points="101.37 8.74 110.77 7.21 118.95 31.24 119.2 5.84 128.74 4.28 125.33 43.42 116.65 44.83 101.37 8.74"/><polygon class="cls-2" points="131.82 3.78 153.24 0.29 154.48 7.86 141.81 9.92 142.94 16.85 154.74 14.93 155.94 22.25 144.14 24.18 145.45 32.26 158.12 30.2 159.37 37.87 137.95 41.36 131.82 3.78"/><polygon class="cls-3" points="131.82 3.78 153.24 0.29 154.48 7.86 141.81 9.92 142.94 16.85 154.74 14.93 155.94 22.25 144.14 24.18 145.45 32.26 158.12 30.2 159.37 37.87 137.95 41.36 131.82 3.78"/><polygon class="cls-2" points="45.87 122.67 49.81 146.82 55.43 145.91 53.88 136.35 61.11 135.17 60.34 130.46 53.11 131.64 52.29 126.62 60.11 125.34 59.32 120.48 45.87 122.67"/><g class="cls-4"><polygon class="cls-3" points="45.87 122.67 59.32 120.48 60.11 125.35 52.29 126.62 53.11 131.64 60.34 130.46 61.11 135.17 53.87 136.35 55.43 145.91 49.81 146.82 45.87 122.67"/></g><polygon class="cls-2" points="61.35 120.15 75.12 117.91 75.91 122.77 67.77 124.1 68.5 128.55 76.08 127.31 76.85 132.02 69.27 133.25 70.11 138.45 78.25 137.12 79.05 142.06 65.29 144.3 61.35 120.15"/><polygon class="cls-3" points="61.35 120.15 75.12 117.91 75.91 122.77 67.77 124.1 68.5 128.55 76.08 127.31 76.85 132.02 69.27 133.25 70.11 138.45 78.25 137.12 79.05 142.06 65.29 144.3 61.35 120.15"/><g class="cls-4"><path class="cls-2" d="M80.44,134.42q3.21,2.15,5.69,1.74a3.17,3.17,0,0,0,2-1.17,2.59,2.59,0,0,0,.58-2.12,2.52,2.52,0,0,0-.91-1.56,9.13,9.13,0,0,0-2.72-1.23,12.47,12.47,0,0,1-4.34-2.16,5.84,5.84,0,0,1-2-3.69,7,7,0,0,1,1.29-5.42,7.77,7.77,0,0,1,5.25-3,11.37,11.37,0,0,1,5.18.48l.94,5.76a6.59,6.59,0,0,0-4.74-1.48,2.77,2.77,0,0,0-1.7.91,1.89,1.89,0,0,0-.51,1.63,2.05,2.05,0,0,0,.86,1.39,7.54,7.54,0,0,0,2.47,1,12.52,12.52,0,0,1,4.58,2.1,6.27,6.27,0,0,1,2.09,4A7.89,7.89,0,0,1,93,137.74a8.22,8.22,0,0,1-5.51,3.33,12.81,12.81,0,0,1-6.08-.68Z" transform="translate(0 0)"/><path class="cls-3" d="M80.44,134.42q3.21,2.15,5.69,1.74a3.17,3.17,0,0,0,2-1.17,2.59,2.59,0,0,0,.58-2.12,2.52,2.52,0,0,0-.91-1.56,9.13,9.13,0,0,0-2.72-1.23,12.47,12.47,0,0,1-4.34-2.16,5.84,5.84,0,0,1-2-3.69,7,7,0,0,1,1.29-5.42,7.77,7.77,0,0,1,5.25-3,11.37,11.37,0,0,1,5.18.48l.94,5.76a6.59,6.59,0,0,0-4.74-1.48,2.77,2.77,0,0,0-1.7.91,1.89,1.89,0,0,0-.51,1.63,2.05,2.05,0,0,0,.86,1.39,7.54,7.54,0,0,0,2.47,1,12.52,12.52,0,0,1,4.58,2.1,6.27,6.27,0,0,1,2.09,4A7.89,7.89,0,0,1,93,137.74a8.22,8.22,0,0,1-5.51,3.33,12.81,12.81,0,0,1-6.08-.68Z" transform="translate(0 0)"/></g><polygon class="cls-2" points="91.86 115.18 107.11 112.69 107.91 117.59 103.01 118.39 106.14 137.64 100.52 138.56 97.38 119.31 92.66 120.08 91.86 115.18"/><polygon class="cls-3" points="91.86 115.18 107.11 112.69 107.91 117.59 103.01 118.39 106.14 137.64 100.52 138.56 97.38 119.31 92.66 120.08 91.86 115.18"/><rect class="cls-2" x="112" y="111.59" width="5.75" height="24.47" transform="translate(-18.43 20.11) rotate(-9.26)"/><rect class="cls-3" x="112" y="111.59" width="5.75" height="24.47" transform="translate(-18.43 20.11) rotate(-9.26)"/><polygon class="cls-2" points="117.4 111.02 123.44 110.03 128.69 125.47 128.85 109.15 134.98 108.15 132.79 133.3 127.22 134.21 117.4 111.02"/><polygon class="cls-3" points="117.4 111.02 123.44 110.03 128.69 125.47 128.85 109.15 134.98 108.15 132.79 133.3 127.22 134.21 117.4 111.02"/><path class="cls-2" d="M138.38,107.6l5.6-.91,10.29,23.11-6.12,1-1.64-4.66-4.63.75-.1,4.94-5.77.94Zm3.76,6.15-.17,8.69,3.06-.5Z" transform="translate(0 0)"/><path class="cls-3" d="M138.38,107.6l5.6-.91,10.29,23.11-6.12,1-1.64-4.66-4.63.75-.1,4.94-5.77.94Zm3.76,6.15-.17,8.69,3.06-.5Z" transform="translate(0 0)"/><polygon class="cls-2" points="152.49 105.3 158.14 104.38 161.27 123.59 169.03 122.33 169.83 127.26 156.43 129.44 152.49 105.3"/><polygon class="cls-3" points="152.49 105.3 158.14 104.38 161.27 123.59 169.03 122.33 169.83 127.26 156.43 129.44 152.49 105.3"/></g></g></svg>