<svg xmlns="http://www.w3.org/2000/svg" xmlns:xlink="http://www.w3.org/1999/xlink" viewBox="0 0 483.97 517.23"><defs><style>.cls-1,.cls-9{fill:none;}.cls-2{clip-path:url(#clip-path);}.cls-3{fill:url(#Dégradé_sans_nom_2);}.cls-4{clip-path:url(#clip-path-2);}.cls-5{fill:#8ac15e;}.cls-6{clip-path:url(#clip-path-3);}.cls-7{fill:#fff;}.cls-8{fill:#00945d;}.cls-9{stroke:#fff;stroke-linejoin:bevel;stroke-width:0.59px;}</style><clipPath id="clip-path" transform="translate(68.11 59.47)"><path class="cls-1" d="M187.45,0a8.15,8.15,0,0,0-1.3.11L110.54,12.43a8.43,8.43,0,0,0-7,9.68,8.83,8.83,0,0,0,9.13,7.27l6.07,37.23a98.5,98.5,0,0,0-31.39.18A104.35,104.35,0,0,0,0,170v.19a113.21,113.21,0,0,0,1.5,18.21c4.43,27.17,18.7,46.05,31,58.87,14,14.58,31.13,26.42,57.72,42.87,38.65,23.86,71.16,48,106.85,99.75,2.87,4.13,8.18,8.46,14,7.51s9.44-6.74,10.85-11.56c17.45-60.42,40.61-93.62,69.65-128.51,20-24,32.54-40.72,41.12-59,7.57-16.05,15.1-38.49,10.68-65.66-10.11-62-66.33-96.75-120-88a98.77,98.77,0,0,0-28.75,9.24l-6-36.8.36-.06a8.86,8.86,0,0,0,6.93-10A8.44,8.44,0,0,0,187.58,0Z"/></clipPath><linearGradient id="Dégradé_sans_nom_2" x1="-122.4" y1="620.53" x2="-121.4" y2="620.53" gradientTransform="matrix(0, 408.27, 408.27, 0, -253169.5, 49967.13)" gradientUnits="userSpaceOnUse"><stop offset="0" stop-color="#00945d"/><stop offset="0.01" stop-color="#00945d"/><stop offset="0.14" stop-color="#0a975d"/><stop offset="0.36" stop-color="#24a05d"/><stop offset="0.65" stop-color="#4fae5e"/><stop offset="0.98" stop-color="#8bc15e"/><stop offset="0.98" stop-color="#8bc15e"/><stop offset="1" stop-color="#8bc15e"/></linearGradient><clipPath id="clip-path-2" transform="translate(68.11 59.47)"><rect class="cls-1" width="344.64" height="397.48"/></clipPath><clipPath id="clip-path-3" transform="translate(68.11 59.47)"><path class="cls-1" d="M225.86,75.66c-35.56,5.8-53.38,36.2-58,56.61C157,114.38,130.5,91.21,95,97,54,103.68,26.36,142.9,33,183.85c2.52,15.47,10.15,28.85,21.72,40.26,45.58,44.89,98.88,53,148.78,126.83,23.85-85.87,71.81-110.46,100.82-167.51,7.34-14.49,10.29-29.59,7.77-45.06-6-36.93-38-63.67-74.29-63.68a75,75,0,0,0-12,1"/></clipPath></defs><title>Fichier 3</title><g id="Calque_2" data-name="Calque 2"><g id="Calque_1-2" data-name="Calque 1"><g class="cls-2"><rect class="cls-3" x="-52.44" y="-6.66" width="452.63" height="411.63" transform="translate(15.67 395.27) rotate(-80)"/></g><g class="cls-4"><path class="cls-5" d="M167.89,132.27C157,114.38,130.5,91.21,95,97,54,103.68,26.36,142.9,33,183.86c2.52,15.46,10.15,28.84,21.72,40.25,45.58,44.9,98.88,53,148.78,126.83,23.85-85.87,71.81-110.46,100.82-167.5,7.34-14.5,10.29-29.6,7.77-45.07-6.68-40.95-45.31-69.38-86.26-62.7-35.56,5.79-53.38,36.19-58,56.6" transform="translate(68.11 59.47)"/></g><g class="cls-6"><path class="cls-7" d="M274.57,228.12l2.7-3.43a3.81,3.81,0,0,0-2.7,3.43M239,258.66a39.52,39.52,0,0,0,4.32,7.79l.53.81c.83-1.16,1.67-2.31,2.51-3.44Zm-.53-1.93,8.65,6.06,2.33-3.09-10.76-7.53a9.2,9.2,0,0,0-.22,4.56m1.68-7.46a11.24,11.24,0,0,0-1,1.68l11,7.73,2.37-3.06-11.2-7.84a11.8,11.8,0,0,0-1.24,1.49m6.44-4.13a9.11,9.11,0,0,0-4.21,1.77l11,7.7,2.4-3Zm10.79,1.23a39,39,0,0,0-8.8-1.39l8,5.59,3-3.71-2.14-.49m-30.69,46.55a5.41,5.41,0,0,0,.18.72q2-3.61,4.13-7.07a5.51,5.51,0,0,0-4.31,6.35M216.35,314.6c1.21-2.75,2.45-5.42,3.72-8a4.54,4.54,0,0,0-2-.1,4.49,4.49,0,0,0-3.64,5.2,4.44,4.44,0,0,0,1.9,2.93m-29.45-7a.65.65,0,0,1,.86-.3,17.23,17.23,0,0,0,2.1.87.64.64,0,0,1-.1,1.24.66.66,0,0,1-.31,0,17.42,17.42,0,0,1-2.25-.92.65.65,0,0,1-.3-.86m4.4,1.66a.63.63,0,0,1,.75-.51,16.91,16.91,0,0,0,2.24.27.63.63,0,0,1,.61.67.64.64,0,0,1-.53.6h-.14a18.3,18.3,0,0,1-2.43-.29.64.64,0,0,1-.5-.75m16.08-4.38a18.72,18.72,0,0,1-1.8,1.65.59.59,0,0,1-.29.13.64.64,0,0,1-.51-1.13,17.42,17.42,0,0,0,1.68-1.54.65.65,0,0,1,.91,0,.63.63,0,0,1,0,.9m-3.79,3a17.86,17.86,0,0,1-2.18,1.11l-.14,0a.64.64,0,0,1-.7-.38.63.63,0,0,1,.34-.84,17.44,17.44,0,0,0,2-1,.64.64,0,1,1,.66,1.1m-22,14.95A269.09,269.09,0,0,1,203.43,351a266.67,266.67,0,0,1,12.4-35.25,5.78,5.78,0,0,1-2.65-3.9,5.71,5.71,0,0,1,1.13-4.5l-5-4.84c-.11.15-.21.31-.33.46a.61.61,0,0,1-.39.24.65.65,0,0,1-.63-1c.15-.19.28-.38.42-.58L194.73,288.5l3.55,20.12c.16,0,.33-.05.49-.09a.66.66,0,0,1,.78.46.64.64,0,0,1-.46.78l-.59.13,2,11.45a5.8,5.8,0,1,1-1.26.23l-2-11.46-.56.08a.64.64,0,1,1-.14-1.27c.16,0,.32-.07.48-.09l-3.55-20.12-8.31,17,.59.41a.64.64,0,0,1-.24,1.17.66.66,0,0,1-.45-.09l-.47-.32-3.05,6.26a5.75,5.75,0,0,1,.08,9.67m18.48-.18a4.49,4.49,0,1,0,5.2,3.65,4.51,4.51,0,0,0-5.2-3.65M193.65,286a1.92,1.92,0,1,0-.67-3.79,1.92,1.92,0,0,0,.67,3.79m-18.88,29.41q3,3.09,6,6.42a4.49,4.49,0,0,0-3.08-8.27,4.44,4.44,0,0,0-2.9,1.85m-24.64-22.29q3.42,2.7,6.84,5.6a4.46,4.46,0,0,0,1.16-3.83,5.07,5.07,0,0,0-.5-1.41,4.48,4.48,0,0,0-4.64-2.19,4.28,4.28,0,0,0-2,.94,4.37,4.37,0,0,0-.83.89m.84-2.42a5.62,5.62,0,0,1,1.8-.66,5.75,5.75,0,0,1,5.55,2.21,5.72,5.72,0,0,1,1.32-.73,4.62,4.62,0,0,0,.1-2.06,4.43,4.43,0,0,0-8.77,1.24m9.33,1.93a4.79,4.79,0,0,0-1.34.7,5.62,5.62,0,0,1,.42,1.34,5.75,5.75,0,0,1-1.31,4.73,4.44,4.44,0,1,0,2.85-6.93,5.09,5.09,0,0,0-.62.16m1,9.89.62.56a4.93,4.93,0,0,0,0-.55,4.68,4.68,0,0,1-.65,0m-35.89-35.25-9.85,1.74q5.72,3.65,11.47,7.47ZM83,247.68q4.47,3.16,9,6.17a5.51,5.51,0,0,0-9-6.17m-21.48-17c.94.84,1.9,1.68,2.85,2.5a1.91,1.91,0,0,0-1.89-3,1.88,1.88,0,0,0-1,.49m-18-94.93,1.25-.22-.22-1.25-1.25.22Zm9.71-3.65a.64.64,0,0,1-.52.74l-6.9,1.22.26,1.49,9.56,2.84L54.22,130l-8.78,1.55.22,1.25,6.9-1.22a.64.64,0,0,1,.74.52M52,139.47l-.15-.87-1.36-.4.26,1.49ZM62.76,116l-3.12-2.2-.74,1L62,117Zm-8,11.44,6.56-9.36-3.14-2.19-6.29,9a5.75,5.75,0,0,1,2.87,2.57m-9.49,2.87,1.27-.22a3.2,3.2,0,0,1,2.63-3,.64.64,0,0,1,.23,1.25,2,2,0,0,0-1.56,1.57L54,128.78a4.46,4.46,0,0,0-8.69,1.53m12.62-16.23a76.49,76.49,0,0,0-10.12,10.71,6.17,6.17,0,0,1,1-.26,5.81,5.81,0,0,1,1.86,0Zm117.66,59.05-2.1-1.48L172,173.76l2.74,5.06Zm-7.28-34.48,5.6,31.74,1.48,1-5.82-33Zm3.31,33.44,1-1.48L167,138.87l-1.26.22Zm-6-34.25,3.77-.66-.22-1.26-3.77.66Zm-.44-2.51,3.76-.66-.55-3.14a.61.61,0,0,0-.32-.44c-.08.34-.16.68-.23,1l-.63-1-2.07.36a.65.65,0,0,0-.51.74Zm85.4-59.25a5.51,5.51,0,1,0,6.39,4.47,5.52,5.52,0,0,0-6.39-4.47M279,87l-1.28-.83a7,7,0,0,0-6.61,12.37,5,5,0,0,1,1.54,1.37l1.26-.23-3.68-6.25a.6.6,0,0,1-.08-.21c-.25-1.44,1.45-2.85,4-3.3s4.6.31,4.86,1.74a.6.6,0,0,1,0,.23L277.62,99l1.29-.23a4.94,4.94,0,0,1,1-1.8A7,7,0,0,0,279,87m-5.3,15.32,5.05-.89a6.3,6.3,0,0,1-.08-1.29l-5.34,1a5.87,5.87,0,0,1,.37,1.23m5.26.37-5,.88.11.63a.64.64,0,0,0,.74.52l3.77-.67a.64.64,0,0,0,.52-.74Zm-7.55-9.78,3.85,6.54,1-.18,1.4-7.47c-.22-.47-1.56-.93-3.34-.62s-2.89,1.21-2.93,1.73M295,103.28a3,3,0,1,0-2.41,3.44,3,3,0,0,0,2.41-3.44M137.5,229.06a8.24,8.24,0,1,0,6.69-9.55,8.26,8.26,0,0,0-6.69,9.55m-1.25.22a9.51,9.51,0,1,1,11,7.72,9.53,9.53,0,0,1-11-7.72m4.56,11.13a13,13,0,0,0,3.77.84,4.2,4.2,0,0,1,6.68-1.17,13,13,0,0,0,3.26-2.09,4.2,4.2,0,0,1,3.89-5.54,13.35,13.35,0,0,0,.84-3.78,4.2,4.2,0,0,1-1.18-6.67,13.23,13.23,0,0,0-2.08-3.27,4.19,4.19,0,0,1-5.55-3.88,13,13,0,0,0-3.78-.84,4.2,4.2,0,0,1-6.67,1.18,13,13,0,0,0-3.27,2.08,4.18,4.18,0,0,1-3.88,5.54,13.09,13.09,0,0,0-.84,3.78,4.21,4.21,0,0,1,1.18,6.68,12.89,12.89,0,0,0,2.08,3.26,4.2,4.2,0,0,1,5.55,3.88M131.11,189,115,191.81l2,11.32Zm-17,1.7,18.78-3.31a.64.64,0,0,1,.56,1.08L117,204.9a.61.61,0,0,1-.64.15.63.63,0,0,1-.44-.49l-2.32-13.16a.65.65,0,0,1,.52-.74m-8-5.06L112,218.93l41.7-41.72L143.74,179l.33,1.89a.65.65,0,0,1-.52.74.63.63,0,0,1-.73-.52l-.34-1.89-1.25.23.77,4.39a.63.63,0,1,1-1.25.22l-.78-4.39-1.25.22.33,1.88a.63.63,0,1,1-1.25.22l-.34-1.88-1.25.22.77,4.4a.63.63,0,1,1-1.25.22l-.78-4.4-1.25.22.33,1.89a.64.64,0,0,1-.52.74.63.63,0,0,1-.73-.52l-.34-1.88-1.25.22.77,4.39a.63.63,0,0,1-.51.74.64.64,0,0,1-.74-.52l-.78-4.39-1.25.22.33,1.88a.63.63,0,1,1-1.25.22l-.34-1.88-1.25.22.77,4.4a.63.63,0,1,1-1.25.22l-.78-4.4-1.25.22.33,1.89a.63.63,0,1,1-1.25.22l-.34-1.88-1.25.22.77,4.39a.63.63,0,0,1-.51.74.64.64,0,0,1-.74-.52l-.78-4.39-1.25.22.33,1.88a.63.63,0,1,1-1.25.22l-.34-1.88-1.25.22.77,4.4a.63.63,0,1,1-1.25.22l-.77-4.4-1.26.22.33,1.89a.63.63,0,1,1-1.25.22l-.33-1.88-1.26.22.78,4.39a.64.64,0,1,1-1.26.22l-.77-4.39-1.26.22.33,1.88a.64.64,0,1,1-1.25.23l-.33-1.89Zm-1.5,53.06a3,3,0,1,0,2.41-3.44,3,3,0,0,0-2.41,3.44M96.81,170.1a5.51,5.51,0,1,0,4.47-6.39,5.52,5.52,0,0,0-4.47,6.39M41,184.93a3,3,0,1,0-2.4,3.44,3,3,0,0,0,2.4-3.44m9.68,26a1.91,1.91,0,1,0-1.55,2.22A1.91,1.91,0,0,0,50.71,211m6.06-24.35a1.91,1.91,0,1,0-1.55,2.21,1.92,1.92,0,0,0,1.55-2.21m25.1-4.43a1.91,1.91,0,1,0-1.55,2.21,1.92,1.92,0,0,0,1.55-2.21M85.68,108a5.51,5.51,0,1,0-4.47,6.38A5.52,5.52,0,0,0,85.68,108M69.32,195.38a11.68,11.68,0,0,0-2,.53.63.63,0,0,1-.82-.38.64.64,0,0,1,.38-.82,14.09,14.09,0,0,1,2.21-.58.63.63,0,0,1,.74.51.64.64,0,0,1-.51.74M65.14,197A12.19,12.19,0,0,0,59.5,209.4a.64.64,0,0,1-1.26.23,13.47,13.47,0,0,1,6.24-13.76.62.62,0,0,1,.87.21.63.63,0,0,1-.21.87m20.71,7.81a14.65,14.65,0,1,0-11.89,17,14.67,14.67,0,0,0,11.89-17m4,22.59a1.91,1.91,0,1,0-1.55,2.21,1.9,1.9,0,0,0,1.55-2.21m3.85-25.91A1.91,1.91,0,1,0,95.89,203a1.91,1.91,0,0,0-2.21-1.55m26.94-85.12-.67-3.77-4.39.78a.64.64,0,1,1-.22-1.26l4.39-.77-.77-4.39a.76.76,0,0,1,0-.3l.77-2.58-.3-1.74-8.79,1.55.31,1.74,1.61,2.16a.57.57,0,0,1,.11.27l5.09,28.87a3.19,3.19,0,0,0,6.28-1.11l-.56-3.14-4.39.78a.64.64,0,1,1-.22-1.26l4.39-.77-.66-3.77-4.39.78a.64.64,0,0,1-.23-1.26l4.4-.77-.67-3.77-4.39.78a.64.64,0,1,1-.22-1.26l4.39-.77-.66-3.77-4.39.78a.64.64,0,0,1-.23-1.26Zm31.82,44a3.82,3.82,0,1,0-3.1,4.42,3.83,3.83,0,0,0,3.1-4.42m6.44-35.76a3,3,0,1,0-2.41,3.44,3,3,0,0,0,2.41-3.44m2.52,72.93a3,3,0,1,0-2.4,3.44,3,3,0,0,0,2.4-3.44m100.46-27.87,1.25-.22-.66-3.76-1.26.22ZM269,180l-1.27.23,8.24,26,1.22-.36Zm-6.89-6.55.27,6.43,1.22-.22-.33-1.88a.63.63,0,1,1,1.25-.22l.33,1.88,1.22-.21-1.94-6.13Zm-.94,7.93-1.28.23,1.14,27,1.27-.06Zm4.72-11.18-6.43,1.13.38,9,1.27-.22-.29-7.15a.62.62,0,0,1,.52-.65l3.12-.55a.62.62,0,0,1,.71.43l2.17,6.82,1.27-.22Zm-27.37,22.3A3,3,0,1,0,241,189a3,3,0,0,0-2.41,3.44M222.33,247a3,3,0,1,0,2.41-3.44,3,3,0,0,0-2.41,3.44m-11.21,31.6-5,.88.11.63a.65.65,0,0,0,.75.52l3.77-.67a.64.64,0,0,0,.52-.74Zm-.29-2.55-5.35.95a6.07,6.07,0,0,1,.38,1.23l5-.89a6.28,6.28,0,0,1-.07-1.29m-7.26-7.23,3.85,6.54,1-.18,1.41-7.47c-.22-.47-1.56-.93-3.34-.62s-2.89,1.21-2.93,1.73m-3.78.75a7,7,0,0,0,3.48,4.88,5,5,0,0,1,1.54,1.37l1.26-.22-3.68-6.26a.6.6,0,0,1-.08-.21c-.25-1.44,1.45-2.85,4-3.3s4.6.31,4.85,1.74a.45.45,0,0,1,0,.23l-1.34,7.14,1.29-.23a5.07,5.07,0,0,1,1-1.8,6.93,6.93,0,0,0,1.6-5.78,7,7,0,0,0-13.85,2.44m-25.55-16.41a7.21,7.21,0,1,0,8.35,5.85,7.22,7.22,0,0,0-8.35-5.85m42.95-61.4a3.2,3.2,0,0,1,3.69,2.59.64.64,0,0,1-1.26.22,1.9,1.9,0,0,0-2.21-1.55.64.64,0,0,1-.22-1.26m-3.84,3.91a4.46,4.46,0,1,0,3.62-5.16,4.45,4.45,0,0,0-3.62,5.16m8.71,23.7a3.19,3.19,0,0,1,3.69,2.58.64.64,0,0,1-.52.74.64.64,0,0,1-.74-.51,1.9,1.9,0,0,0-2.21-1.55.64.64,0,0,1-.74-.52.64.64,0,0,1,.52-.74m-3.84,3.91a4.46,4.46,0,1,0,3.61-5.16,4.46,4.46,0,0,0-3.61,5.16m-33.15,6.49a.64.64,0,0,1-.74-.51,1.9,1.9,0,0,0-2.21-1.55.64.64,0,0,1-.22-1.26,3.2,3.2,0,0,1,3.69,2.59.63.63,0,0,1-.52.73m1.77-1a4.46,4.46,0,1,0-3.61,5.16,4.45,4.45,0,0,0,3.61-5.16m10.49-32.26a.64.64,0,0,1-.22-1.26,3.2,3.2,0,0,1,3.69,2.59.64.64,0,1,1-1.26.22,1.91,1.91,0,0,0-2.21-1.55m1.11,6.27a4.46,4.46,0,1,0-5.17-3.61,4.45,4.45,0,0,0,5.17,3.61m5.75,32.63a3.19,3.19,0,0,1,3.69,2.58.64.64,0,0,1-1.25.23,1.91,1.91,0,0,0-2.22-1.55.65.65,0,0,1-.74-.52.64.64,0,0,1,.52-.74m-.22-1.25a4.46,4.46,0,1,0,5.17,3.61,4.46,4.46,0,0,0-5.17-3.61m-4.21-23.85a8.28,8.28,0,0,1,7.53,2.54.64.64,0,0,1-.94.86,7,7,0,0,0-6.36-2.14.64.64,0,0,1-.23-1.26m8.19,4.51a.65.65,0,0,1,.84.33,7.71,7.71,0,0,1,.57,1.88.64.64,0,0,1-.52.74.65.65,0,0,1-.74-.52,6.79,6.79,0,0,0-.48-1.59.64.64,0,0,1,.33-.84m-16.16,5.31a9.56,9.56,0,1,0,7.75-11.07,9.56,9.56,0,0,0-7.75,11.07m-11.59-18a.63.63,0,0,1-.73-.52,1.92,1.92,0,0,0-2.22-1.55.64.64,0,0,1-.22-1.26,3.2,3.2,0,0,1,3.69,2.59.64.64,0,0,1-.52.74m-3.39-4.58a4.46,4.46,0,1,0,5.17,3.62,4.47,4.47,0,0,0-5.17-3.62m47-89.72a1.91,1.91,0,1,0,2.21,1.55,1.92,1.92,0,0,0-2.21-1.55m-6.13,16.61a3.19,3.19,0,1,0,3.69,2.59,3.18,3.18,0,0,0-3.69-2.59m-1.78,23.58a3.81,3.81,0,1,0,3.09-4.42,3.82,3.82,0,0,0-3.09,4.42m-33.22,21a.65.65,0,0,1,.52-.74l7.53-1.32a.63.63,0,0,1,.73.51l1.33,7.53a.63.63,0,1,1-1.25.22l-1.22-6.9-6.9,1.22a.64.64,0,0,1-.74-.52m24.13,3.41a15.43,15.43,0,0,1,2.39-8.49.64.64,0,0,1,1.08.68,14.17,14.17,0,0,0-2.19,7.79.64.64,0,1,1-1.28,0m-23.72,6.23L221.32,172l-46.65-41Zm25.36-66.22a1.91,1.91,0,1,0-1.55,2.22,1.91,1.91,0,0,0,1.55-2.22m-10.18,8.27a3.19,3.19,0,1,0-2.59,3.69,3.2,3.2,0,0,0,2.59-3.69m-4-22.59a3.18,3.18,0,1,0-2.58,3.69,3.18,3.18,0,0,0,2.58-3.69m12.4,4.28a1.91,1.91,0,1,0-1.55,2.22,1.91,1.91,0,0,0,1.55-2.22m7.17-18.08a3.19,3.19,0,1,0-2.59,3.69,3.2,3.2,0,0,0,2.59-3.69m.73,11.51A1.91,1.91,0,1,0,213,98.13a1.91,1.91,0,0,0,1.55-2.22M218.13,116a1.91,1.91,0,1,0-1.55,2.22,1.91,1.91,0,0,0,1.55-2.22m3.92-18.16a1.91,1.91,0,1,0,2.21,1.55,1.91,1.91,0,0,0-2.21-1.55m6.74-18.35a3,3,0,1,0-2.41,3.44,3,3,0,0,0,2.41-3.44M237,90.68a3.18,3.18,0,1,0-2.58,3.69A3.2,3.2,0,0,0,237,90.68m4,22.58a3.18,3.18,0,1,0-2.58,3.69,3.19,3.19,0,0,0,2.58-3.69m3.22,55.83a.63.63,0,1,1-.22-1.25,1.91,1.91,0,0,0,1.56-2.21l-2.64-15a.63.63,0,0,1,.52-.74.64.64,0,0,1,.74.51l2.64,15a3.18,3.18,0,0,1-2.6,3.68m-1-20.45a.65.65,0,0,1-.75-.51l-2.64-15a.64.64,0,0,1,1.26-.22l2.65,15a.64.64,0,0,1-.52.74M248,165.19,242,130.8,235,132a.62.62,0,0,1-.74-.51.64.64,0,0,1,.52-.74l6.94-1.22-.22-1.25-8.83,1.56,6.5,36.89a4.49,4.49,0,0,0,8.84-1.56m10.29-58.88a3,3,0,1,0-2.41,3.43,3,3,0,0,0,2.41-3.43m15,24.56a5.83,5.83,0,0,0-3.27-7.12c-4.74-2.25-13.9-1.53-16.94-1.21,1.67,2.55,6.91,10.11,11.65,12.35s7.64-1.93,8.15-2.8a28.84,28.84,0,0,0-9.26-3.5.64.64,0,0,1-.53-.73.64.64,0,0,1,.73-.53,30.47,30.47,0,0,1,9.47,3.54m21.34-1.26c3.69-3.73,6-12.62,6.72-15.59-3,.74-11.82,3.19-15.5,6.93a5.84,5.84,0,0,0-.64,7.82,30.62,30.62,0,0,1,7.7-6.57.63.63,0,0,1,.86.25.64.64,0,0,1-.25.87,29,29,0,0,0-7.5,6.45c.78.65,4.81,3.7,8.61-.16m14.72,16.09a5.51,5.51,0,1,0-4.47,6.39,5.52,5.52,0,0,0,4.47-6.39m-4.25,7.64a6.78,6.78,0,1,1,5.51-7.86,6.79,6.79,0,0,1-5.51,7.86m-2.28-40c-.1.51-2.57,12.46-7.28,17.22-3.2,3.24-7.07,2.74-10.28.26a15.7,15.7,0,0,0-3.07,12l2.66,15.06a.64.64,0,1,1-1.26.22L281,143a15.66,15.66,0,0,0-7-10.27c-2.17,3.43-5.64,5.23-9.75,3.28-6.05-2.87-12.46-13.25-12.73-13.69a.64.64,0,0,1,.46-1c.51-.08,12.61-1.67,18.65,1.2,5,2.37,4.39,7,3.85,9a18,18,0,0,1,6.38,7,18.13,18.13,0,0,1,3.61-8.72c-1.17-1.67-3.35-5.82.54-9.76,4.7-4.76,16.61-7.41,17.12-7.51a.64.64,0,0,1,.76.75M256.13,111a4.24,4.24,0,1,1,3.44-4.92,4.25,4.25,0,0,1-3.44,4.92M244.6,171.59a5.74,5.74,0,0,1-6.67-4.62l-6.62-37.52a.64.64,0,0,1,.52-.73l10.1-1.78a.64.64,0,0,1,.74.51L249.29,165a5.75,5.75,0,0,1-4.69,6.62m-6-53.38a4.47,4.47,0,0,1-5.17-3.62,4.58,4.58,0,0,1,0-1.43l-4.55-1.35a.65.65,0,0,1-.42-.8.63.63,0,0,1,.79-.42l4.55,1.35a4.41,4.41,0,0,1,3.26-2.51,4.46,4.46,0,1,1,1.55,8.78m-4-22.59a4.48,4.48,0,0,1-3.93-1.24l-3.81,2.83a.64.64,0,0,1-.76-1l3.81-2.82a4.46,4.46,0,1,1,4.69,2.26m-8-11.45A4.24,4.24,0,1,1,230,79.26a4.25,4.25,0,0,1-3.44,4.91m-4.77,12.41a3.18,3.18,0,1,1-2.59,3.69,3.12,3.12,0,0,1,0-1.14l-1.91-.63a.63.63,0,0,1-.41-.8.64.64,0,0,1,.8-.41l2,.66a3.2,3.2,0,0,1,2.1-1.37m-3.57,17.28,1.65-1.29a.64.64,0,0,1,.79,1l-1.62,1.28a3.44,3.44,0,0,1,.31.92,3.19,3.19,0,1,1-3.69-2.58,3.13,3.13,0,0,1,2.56.67m-5-14.48a3.15,3.15,0,0,1-2.55-.66L209.07,100a.64.64,0,1,1-.79-1l1.61-1.27a3.3,3.3,0,0,1-.32-.93,3.19,3.19,0,1,1,3.69,2.58m-1.15-10.2.34,1.94a.63.63,0,0,1-1.25.22l-.34-1.94a4.46,4.46,0,1,1,1.25-.22M208,102.26a3.19,3.19,0,0,1-2,3.52l.34,1.94a.64.64,0,0,1-1.25.23l-.34-2a3.18,3.18,0,1,1,3.22-3.74m-7.41-.7a.65.65,0,0,1-.8.43l-4.55-1.36a4.45,4.45,0,1,1,.36-2.65,4.58,4.58,0,0,1,0,1.43l4.55,1.36a.64.64,0,0,1,.43.79m-1.48,17.66a4.33,4.33,0,0,1,.47,1.35,4.47,4.47,0,1,1-1.24-2.38l3.81-2.82a.64.64,0,0,1,.89.13.63.63,0,0,1-.13.89Zm10.65-5.79,1.89.62a.64.64,0,1,1-.4,1.21l-2-.65a3.17,3.17,0,1,1,.49-2.31,3.06,3.06,0,0,1,0,1.13m13.45,58.48a.64.64,0,0,1-.31,1.11l-40.16,7.08a.64.64,0,0,1-.74-.52l-8.85-50.19a.64.64,0,0,1,1.05-.59Zm-4.38-29.52a5.09,5.09,0,1,1-4.13,5.89,5.1,5.1,0,0,1,4.13-5.89m-1.93-19-.34-1.93a.64.64,0,0,1,1.25-.23l.34,1.94a4.46,4.46,0,1,1-1.25.22m6.13-16.6-.34-1.94a.63.63,0,1,1,1.25-.22l.35,1.94a3.19,3.19,0,1,1-1.26.22M183.23,201a5.7,5.7,0,0,1-.62,3.74l10.11,7.07a10.77,10.77,0,0,1,6-3.82l-.68-3.82a5.73,5.73,0,1,1,1.26-.22l.67,3.82a10.8,10.8,0,0,1,6.93,1.54L214,199.2a5.8,5.8,0,1,1,1.05.73L207.92,210a10.79,10.79,0,0,1,4,6.61,11,11,0,0,1,.08,3.23l5.18,1a5.72,5.72,0,1,1-.17,2.66,6.09,6.09,0,0,1-.07-1.41l-5.18-1a10.85,10.85,0,0,1-8,7.94l.67,3.82a5.73,5.73,0,1,1-1.25.22l-.68-3.82a10.85,10.85,0,0,1-10.23-4.72l-4.54,2.68a6.23,6.23,0,0,1,.42,1.35,5.76,5.76,0,1,1-1.07-2.44l4.53-2.69a10.86,10.86,0,0,1,.43-10.62l-10.11-7.07a5.73,5.73,0,1,1,1.35-4.78M174,251.91a8.48,8.48,0,1,1-6.88,9.82,8.48,8.48,0,0,1,6.88-9.82m31.26,8.26a8.32,8.32,0,0,1,9.62,6.74,8.22,8.22,0,0,1-1.89,6.83,4.15,4.15,0,0,0-.83,3.47l.31,1.79a1.92,1.92,0,0,1-1.55,2.22l-3.78.67a1.92,1.92,0,0,1-2.22-1.55l-.32-1.8a4.16,4.16,0,0,0-2-3,8.22,8.22,0,0,1-4.12-5.78,8.32,8.32,0,0,1,6.75-9.62m19.24-17.86a4.24,4.24,0,1,1-3.44,4.91,4.25,4.25,0,0,1,3.44-4.91M225.7,268c3.82-3.9,8.8-3.54,13.61-2.55a.64.64,0,0,1,.5.75.65.65,0,0,1-.76.5c-4.45-.91-9-1.28-12.44,2.19a.63.63,0,0,1-.9,0,.63.63,0,0,1,0-.9m15-80.2a4.24,4.24,0,1,1-3.44,4.91,4.24,4.24,0,0,1,3.44-4.91m14.73-6.71,3.13-.55-.41-9.72a.64.64,0,0,1,.53-.65l1.88-.34-.77-4.39a.64.64,0,0,1,.52-.74l2.51-.44a.63.63,0,0,1,.73.52l.78,4.39,1.88-.33a.64.64,0,0,1,.72.43l2.94,9.27L273,178a.64.64,0,1,1,.22,1.26l-3,.52L278.63,206a.65.65,0,0,1-.42.81l-.69.21.32,1.8a.65.65,0,0,1-.52.74.64.64,0,0,1-.74-.52l-.29-1.65-.52.16a.64.64,0,0,1-.79-.42l-8.49-26.72-1.38.25.33,1.88a.64.64,0,0,1-1.26.22l-.33-1.88-1.39.24,1.17,28a.65.65,0,0,1-.61.67l-.53,0,.29,1.65a.64.64,0,0,1-1.26.23l-.32-1.81-.71,0a.63.63,0,0,1-.68-.61l-1.15-27.53-3,.53a.64.64,0,0,1-.73-.52.63.63,0,0,1,.51-.74m9.82,24.2c2.21-.44,4.58-.86,6.81-1.2a.63.63,0,0,1,.72.53.67.67,0,0,1-.53.73c-2.21.33-4.56.75-6.75,1.19a.64.64,0,1,1-.25-1.25M276.19,138a.63.63,0,0,1,.51-.74.64.64,0,0,1,.74.52l4.72,26.76a3.18,3.18,0,0,0,6.27-1.11l-4.72-26.78a.63.63,0,1,1,1.25-.22l4.73,26.78a4.46,4.46,0,0,1-8.79,1.55Zm-117,64.11a4.24,4.24,0,1,1,3.44-4.91,4.24,4.24,0,0,1-3.44,4.91m-2.53-72.93a4.24,4.24,0,1,1,3.44-4.91,4.23,4.23,0,0,1-3.44,4.91m-3,30.85a5.09,5.09,0,1,1-5.9-4.13,5.08,5.08,0,0,1,5.9,4.13m-8.21-31.82a.63.63,0,0,1-.53.6l-4.68.83a18.63,18.63,0,0,1-1.08,4.72l4,2.77a.66.66,0,0,1,.22.79,27.78,27.78,0,0,1-6,8.58.64.64,0,0,1-.81.06l-4-2.77a18.39,18.39,0,0,1-4.07,2.62l.83,4.69a.63.63,0,0,1-.39.7,26.5,26.5,0,0,1-10.31,1.82.63.63,0,0,1-.6-.53l-.82-4.68a18.71,18.71,0,0,1-4.73-1.08l-2.77,4a.65.65,0,0,1-.78.22,27.82,27.82,0,0,1-8.59-6,.64.64,0,0,1-.06-.81l2.77-4a18.89,18.89,0,0,1-2.62-4.07l-4.69.83a.65.65,0,0,1-.7-.39,26.35,26.35,0,0,1-1.82-10.31.63.63,0,0,1,.53-.6l4.69-.83a18.3,18.3,0,0,1,1.07-4.72l-4-2.77a.64.64,0,0,1-.22-.78,27.82,27.82,0,0,1,6-8.59.64.64,0,0,1,.81-.06l3.94,2.76a19,19,0,0,1,3.32-2.21.64.64,0,1,1,.59,1.13,18.46,18.46,0,0,0-3.46,2.36.63.63,0,0,1-.78,0l-3.9-2.73a26.27,26.27,0,0,0-5.14,7.34l3.93,2.75a.65.65,0,0,1,.23.76A16.92,16.92,0,0,0,99.69,126a.65.65,0,0,1-.53.58l-4.66.83a25.39,25.39,0,0,0,1.55,8.78l4.66-.82a.63.63,0,0,1,.69.37,17.18,17.18,0,0,0,3,4.57.65.65,0,0,1,0,.79L101.65,145a26.38,26.38,0,0,0,7.34,5.13l2.75-3.93a.64.64,0,0,1,.76-.22,17.56,17.56,0,0,0,5.31,1.21.63.63,0,0,1,.58.52l.83,4.66a25.58,25.58,0,0,0,8.78-1.55l-.82-4.66a.63.63,0,0,1,.37-.69,17.31,17.31,0,0,0,4.57-2.95.63.63,0,0,1,.79-.05l3.93,2.75a26.27,26.27,0,0,0,5.14-7.34l-3.93-2.75a.63.63,0,0,1-.22-.76,17.49,17.49,0,0,0,1.21-5.31.63.63,0,0,1,.52-.58l4.66-.82a25.27,25.27,0,0,0-1.55-8.79l-4.66.82a.63.63,0,0,1-.69-.37,17.56,17.56,0,0,0-2.95-4.57.63.63,0,0,1-.05-.79l2.75-3.93a26.27,26.27,0,0,0-7.34-5.14l-2.73,3.9a.65.65,0,0,1-.75.23,18.66,18.66,0,0,0-4.06-1,.63.63,0,0,1-.55-.71.65.65,0,0,1,.72-.55,19,19,0,0,1,3.87.94l2.76-3.94a.65.65,0,0,1,.79-.22,27.9,27.9,0,0,1,8.58,6,.64.64,0,0,1,.06.81l-2.77,4a18.75,18.75,0,0,1,2.62,4.07l4.69-.82a.62.62,0,0,1,.7.38,26.5,26.5,0,0,1,1.82,10.31M133.79,125a14.64,14.64,0,0,0-10.73-11.62.64.64,0,0,1-.45-.78.65.65,0,0,1,.77-.46,15.94,15.94,0,1,1-13.07,2.31.65.65,0,0,1,.89.16.64.64,0,0,1-.17.89,14.65,14.65,0,1,0,22.76,9.5M121,104.25l-.77,2.58,5.06,28.72a4.46,4.46,0,0,1-8.78,1.55l-5.07-28.72-1.6-2.17a.62.62,0,0,1-.12-.26l-.44-2.51a.64.64,0,0,1,.51-.74l10-1.77a.64.64,0,0,1,.74.51L121,104a.76.76,0,0,1,0,.3M93.45,200.18A3.19,3.19,0,1,1,91,204.49l-1.94.34a.63.63,0,1,1-.22-1.25l1.94-.35a3.2,3.2,0,0,1,2.63-3m-2.36,26.94a3.19,3.19,0,1,1-5.59-1.47l-3.28-4.16a.64.64,0,0,1,1-.79l3.26,4.14a3.36,3.36,0,0,1,.91-.3,3.19,3.19,0,0,1,3.69,2.58M74.18,223A15.93,15.93,0,1,1,87.1,204.54,16,16,0,0,1,74.18,223m7.25-107.37a6.78,6.78,0,1,1,5.51-7.86,6.79,6.79,0,0,1-5.51,7.86m-.89,70a3.1,3.1,0,0,1-1,0l-1.65,5a.64.64,0,1,1-1.21-.39l1.66-5a3.18,3.18,0,1,1,2.16.39M60.5,194a.64.64,0,0,1-.89-.1l-3.27-4.15a3.08,3.08,0,0,1-.9.3,3.19,3.19,0,1,1,1.89-1.1l3.28,4.16a.63.63,0,0,1-.11.89m-8.71,16.11,2-.35A.64.64,0,1,1,54,211l-2,.34a3.18,3.18,0,1,1-.22-1.25m-12.94-20.5a4.24,4.24,0,1,1,3.44-4.91,4.25,4.25,0,0,1-3.44,4.91m56.71-19.3a6.78,6.78,0,1,1,7.86,5.5,6.79,6.79,0,0,1-7.86-5.5M106.78,234a4.24,4.24,0,1,1-3.44,4.91,4.23,4.23,0,0,1,3.44-4.91M112,220.7a.6.6,0,0,1-.64.15.62.62,0,0,1-.43-.49l-6.2-35.16a.62.62,0,0,1,.51-.74l50.2-8.85a.63.63,0,0,1,.56,1.07Zm8.12,23.3.81-2.73a.67.67,0,0,1,1.12-.2l1.7,2.29a.64.64,0,0,1-.13.89.62.62,0,0,1-.89-.13l-.94-1.26-.45,1.51a.64.64,0,0,1-.79.43.65.65,0,0,1-.43-.8m5.15,3.93a.64.64,0,0,1,.74.52c2.14,12.14,4.84,14,17,11.89a.63.63,0,0,1,.74.51.64.64,0,0,1-.52.74c-12.9,2.28-16.18,0-18.45-12.92a.64.64,0,0,1,.51-.74m19.7-5.39a14.35,14.35,0,0,1-5.06-1.12.65.65,0,0,1-.39-.65,2.94,2.94,0,0,0-1.23-2.67,2.91,2.91,0,0,0-2.93-.24.66.66,0,0,1-.74-.14,14.85,14.85,0,0,1-2.79-4.37.64.64,0,0,1,.19-.73,2.94,2.94,0,0,0-.89-5,.65.65,0,0,1-.42-.62,14.1,14.1,0,0,1,1.13-5.06.64.64,0,0,1,.64-.39,2.92,2.92,0,0,0,2.92-4.16.63.63,0,0,1,.14-.74,14.4,14.4,0,0,1,4.37-2.79.63.63,0,0,1,.72.18,2.94,2.94,0,0,0,5-.88.64.64,0,0,1,.62-.42,14.4,14.4,0,0,1,5.06,1.12.64.64,0,0,1,.38.65,2.92,2.92,0,0,0,4.17,2.91.65.65,0,0,1,.74.15,14.45,14.45,0,0,1,2.78,4.36.62.62,0,0,1-.18.73,2.95,2.95,0,0,0,.89,5,.63.63,0,0,1,.42.62,14.63,14.63,0,0,1-1.13,5.06.66.66,0,0,1-.64.38,2.93,2.93,0,0,0-2.92,4.17.63.63,0,0,1-.14.73,14.21,14.21,0,0,1-4.37,2.79.62.62,0,0,1-.72-.18,2.94,2.94,0,0,0-5,.89.62.62,0,0,1-.62.41m2.78,18.61a.64.64,0,0,1,.79-.43l2.73.81a.66.66,0,0,1,.2,1.12l-2.29,1.7a.64.64,0,1,1-.76-1l1.27-.94-1.51-.45a.63.63,0,0,1-.43-.79m105-31.82a.64.64,0,0,1,1.15.55c-2.1,4.38-.19,8.57,2.19,12.45A.64.64,0,1,1,255,243c-2.57-4.19-4.62-8.74-2.25-13.67m59.39-91.11a75.82,75.82,0,0,0-16.06-35.75,5.69,5.69,0,0,1,.16.59,4.27,4.27,0,1,1-2.21-3,76.44,76.44,0,0,0-11.8-10.81,8.3,8.3,0,0,1,.5,1.72,8.2,8.2,0,0,1-1.89,6.84,4.15,4.15,0,0,0-.83,3.47l.31,1.79a1.91,1.91,0,0,1-1.55,2.22L275,106a1.92,1.92,0,0,1-2.22-1.56l-.32-1.79a4.16,4.16,0,0,0-2-3,8.28,8.28,0,0,1,2.63-15.4,8.51,8.51,0,0,1,1.22-.11,74.93,74.93,0,0,0-18-7.27,6.79,6.79,0,1,1-7.62-1.56,73.79,73.79,0,0,0-23,.14c-24.49,4-40.57,19.62-49.72,35.64a5,5,0,0,1,1.92-.76,5.09,5.09,0,1,1-4.13,5.9,5,5,0,0,1-.07-.85,76.94,76.94,0,0,0-5.49,14.48,1.92,1.92,0,0,1,1.26,1.47l7.3,41.41a.67.67,0,0,1,0,.2l-1.18,8a.65.65,0,0,1-.52.54.64.64,0,0,1-.67-.33L170.65,174a1.46,1.46,0,0,1-.07-.19l-7.3-41.42a1.91,1.91,0,0,1,1.55-2.21l1.53-.27c-11.66-17.54-37.48-38.71-71.65-33.14a74,74,0,0,0-34.83,15.62L64,115.33a.64.64,0,0,1,.15.88L55.3,128.87a1.7,1.7,0,0,1,.06.31l.36,2,23,1a.63.63,0,0,1,.6.52l2.65,15.05a.59.59,0,0,1,0,.37l-3.4,7.75,4.77,1.42a.63.63,0,0,1,.44.5l.45,2.51a.63.63,0,0,1-.52.73l-50.2,8.86a.63.63,0,0,1-.73-.52l-.45-2.51a.63.63,0,0,1,.42-.71L47.39,161l12.55-2.21a3.19,3.19,0,0,1,.41-5l-2-1.4a.65.65,0,0,1-.26-.41l-.77-4.39-1.26.22.78,4.39a.64.64,0,0,1-.52.74l-5,.88a.64.64,0,0,1-.74-.51l-.77-4.39-4.39.77a.64.64,0,0,1-.74-.52l-.22-1.25A1.9,1.9,0,0,1,46,145.71l12.55-2.22A1.91,1.91,0,0,1,60.75,145l.11.63,8.78-1.55-.69-4-12.1-2.53.28,1.58a.63.63,0,0,1-.8.72L53.22,139l.15.87a.65.65,0,0,1-.52.74l-2.51.44a.65.65,0,0,1-.74-.52l-.48-2.75-3.57-1.06-2.37.42a.63.63,0,0,1-.73-.52L42,134.12a.65.65,0,0,1,.52-.74l1.88-.33-.33-1.88a5.41,5.41,0,0,1-.08-1.06,76.73,76.73,0,0,0-9.61,21.49,4.23,4.23,0,1,1-.8,3.29v0a75.85,75.85,0,0,0-.86,28.9c2.52,15.49,10.16,28.88,21.74,40.31q3,3,6.14,5.79a3.11,3.11,0,0,1,1.7-.88,3,3,0,0,1,1,0l1.65-5a.65.65,0,0,1,.81-.4.63.63,0,0,1,.4.8l-1.65,5A3.15,3.15,0,0,1,66,231.55a3.2,3.2,0,0,1-.61,2.49c5.45,4.64,11,8.88,16.62,12.9a6.72,6.72,0,0,1,3.94-2.24,6.77,6.77,0,0,1,7.16,9.86C100,259.13,107,263.53,114,268l11.2-2L121.8,246.6a.64.64,0,0,1,1.26-.22l3.43,19.45L146,262.4a.64.64,0,0,1,.22,1.26l-19.46,3.43,1.84,10.41c6.84,4.6,13.71,9.47,20.6,14.88a5.67,5.67,0,0,1,.68-.79c0-.11-.05-.22-.07-.33a5.7,5.7,0,1,1,11.23-2,5.5,5.5,0,0,1,0,1.94,5.7,5.7,0,0,1,2.28,11.14,5.47,5.47,0,0,1-.17,1.77q5.4,4.89,10.77,10.39a5.73,5.73,0,0,1,3.58-2.18,5.56,5.56,0,0,1,2.93.27l12.37-25.34a3.18,3.18,0,0,1-2.6-2.57,3.21,3.21,0,0,1,6.32-1.12,3.19,3.19,0,0,1-1.56,3.31l20.29,19.58a5.66,5.66,0,0,1,5.43-1.07c1.76-3.57,3.56-7,5.4-10.33a6.75,6.75,0,0,1,5.76-9.88q2.78-4.51,5.63-8.77l-9.06-6.36a.63.63,0,0,1-.16-.88.64.64,0,0,1,.89-.16l9,6.34c.72-1.07,1.45-2.13,2.18-3.19l-5.11-3.58a.64.64,0,0,1-.16-.89.65.65,0,0,1,.89-.15l5.11,3.58c.65-.93,1.3-1.85,2-2.76-.26-.41-.53-.81-.8-1.22-3.83-5.87-7.8-11.94-3.14-18.61s11.73-5,18.56-3.41c.92.22,1.84.43,2.74.62l1.8-2.23-6.31-4.42a.64.64,0,0,1-.16-.89.63.63,0,0,1,.89-.15l6.39,4.47,2.44-3-10.52-7.34a.65.65,0,0,1-.15-.89.63.63,0,0,1,.88-.16l10.59,7.4q3.65-4.49,7.23-9a1.83,1.83,0,0,1-.07-.32,5.1,5.1,0,0,1,4.12-5.9,5.42,5.42,0,0,1,.89-.07c2.91-3.75,5.76-7.55,8.54-11.45a103.6,103.6,0,0,1-16.25,4.11c-12.78,2.26-26.06,2.6-26.72-1.11-.57-3.22,8.36-6.2,13.72-7.69a.6.6,0,0,1,.79.44.65.65,0,0,1-.44.79c-9.67,2.68-13,5.25-12.81,6.24.32,1.84,10.08,2.75,25.24.08a93,93,0,0,0,17.79-4.72q1.8-2.56,3.55-5.21c-2.18-.48-6-.73-11.81-.27a.64.64,0,0,1-.69-.58.63.63,0,0,1,.59-.69c3.77-.3,9.32-.5,12.67.4,2.76-4.2,5.43-8.55,8-13.09a8.36,8.36,0,0,1-4,1.91,8.48,8.48,0,1,1,6.88-9.82,8.22,8.22,0,0,1,.06,2.52l.93-1.78c7.35-14.51,10.3-29.63,7.78-45.11M178.21,111.56a3.82,3.82,0,1,0,4.42,3.1,3.82,3.82,0,0,0-4.42-3.1M68.76,150.1a1.27,1.27,0,1,0-1,1.47,1.28,1.28,0,0,0,1-1.47m6.79-12.84a1.27,1.27,0,1,0-1,1.47,1.26,1.26,0,0,0,1-1.47M73,151.94a1.26,1.26,0,0,0,1.47,1,1.27,1.27,0,1,0-.44-2.5,1.26,1.26,0,0,0-1,1.47m.81-2.73a2.55,2.55,0,1,1-2.07,2.95,2.55,2.55,0,0,1,2.07-2.95m1-9.22a2.55,2.55,0,1,1,2.07-3,2.55,2.55,0,0,1-2.07,3M68,152.83a2.55,2.55,0,1,1,2.06-3,2.57,2.57,0,0,1-2.06,3m3.06-8.3a.63.63,0,0,1-.52.73l-11.92,2.11.73,4.13,2.54,1.77a3.18,3.18,0,0,1,.83,6.3l-15,2.64-14.11,5,.24,1.35,48.94-8.63-.26-1.49-5.09-1.51A.64.64,0,0,1,77,156l3.62-8.24-2.54-14.35-22.17-1,.68,3.81,13,2.72a.64.64,0,0,1,.5.51ZM51.26,150l3.77-.67L54.81,148l-3.77.66Zm4,.59-3.77.66.23,1.26,3.76-.67Zm-9.45-2.21,13.81-2.44-.11-.63a.65.65,0,0,0-.74-.51L46.21,147a.64.64,0,0,0-.52.74Zm16,6.23A1.91,1.91,0,1,0,64,156.11a1.91,1.91,0,0,0-2.22-1.55m-26.94.11a3,3,0,1,0,2.4-3.44,3,3,0,0,0-2.4,3.44m261.44,36.49a7.21,7.21,0,1,0-8.35-5.85,7.22,7.22,0,0,0,8.35,5.85" transform="translate(68.11 59.47)"/></g><rect class="cls-8" x="141.66" y="187.03" width="11.35" height="48.28" transform="translate(36.06 85.92) rotate(-9.26)"/><rect class="cls-9" x="141.66" y="187.03" width="11.35" height="48.28" transform="translate(36.06 85.92) rotate(-9.26)"/><g class="cls-4"><path class="cls-8" d="M141.48,235.35a18.68,18.68,0,0,1-7.54,3.23q-8,1.3-13.91-4.92T112.44,217a36.6,36.6,0,0,1,0-12.49,20.34,20.34,0,0,1,4.81-10.2,15.36,15.36,0,0,1,9.21-5,18.24,18.24,0,0,1,7.56.55l1.77,10.9A8.31,8.31,0,0,0,129.6,199q-3.85.63-5.46,4.89t-.4,11.64q1,6.31,3.89,9.76c1.9,2.3,4.09,3.24,6.54,2.84,1.8-.29,3.66-1.47,5.56-3.53Z" transform="translate(68.11 59.47)"/><path class="cls-9" d="M141.48,235.35a18.68,18.68,0,0,1-7.54,3.23q-8,1.3-13.91-4.92T112.44,217a36.6,36.6,0,0,1,0-12.49,20.34,20.34,0,0,1,4.81-10.2,15.36,15.36,0,0,1,9.21-5,18.24,18.24,0,0,1,7.56.55l1.77,10.9A8.31,8.31,0,0,0,129.6,199q-3.85.63-5.46,4.89t-.4,11.64q1,6.31,3.89,9.76c1.9,2.3,4.09,3.24,6.54,2.84,1.8-.29,3.66-1.47,5.56-3.53Z" transform="translate(68.11 59.47)"/><path class="cls-8" d="M84.38,231.26q6.33,4.23,11.22,3.43a6.2,6.2,0,0,0,4-2.3,5.1,5.1,0,0,0,1.14-4.18,4.87,4.87,0,0,0-1.8-3.07,17.51,17.51,0,0,0-5.37-2.44A24.38,24.38,0,0,1,85,218.44a11.43,11.43,0,0,1-3.93-7.28,13.64,13.64,0,0,1,2.54-10.69q3.49-4.75,10.37-5.87a22.08,22.08,0,0,1,10.21.93l1.86,11.37q-5.22-3.6-9.35-2.93a5.47,5.47,0,0,0-3.35,1.81,3.76,3.76,0,0,0-1,3.22,4,4,0,0,0,1.7,2.73,15.12,15.12,0,0,0,4.88,1.94,24.51,24.51,0,0,1,9,4.14,12.33,12.33,0,0,1,4.13,7.92,15.44,15.44,0,0,1-2.92,12.08,16.2,16.2,0,0,1-10.87,6.58,25.33,25.33,0,0,1-12-1.34Z" transform="translate(68.11 59.47)"/><path class="cls-9" d="M84.38,231.26q6.33,4.23,11.22,3.43a6.2,6.2,0,0,0,4-2.3,5.1,5.1,0,0,0,1.14-4.18,4.87,4.87,0,0,0-1.8-3.07,17.51,17.51,0,0,0-5.37-2.44A24.38,24.38,0,0,1,85,218.44a11.43,11.43,0,0,1-3.93-7.28,13.64,13.64,0,0,1,2.54-10.69q3.49-4.75,10.37-5.87a22.08,22.08,0,0,1,10.21.93l1.86,11.37q-5.22-3.6-9.35-2.93a5.47,5.47,0,0,0-3.35,1.81,3.76,3.76,0,0,0-1,3.22,4,4,0,0,0,1.7,2.73,15.12,15.12,0,0,0,4.88,1.94,24.51,24.51,0,0,1,9,4.14,12.33,12.33,0,0,1,4.13,7.92,15.44,15.44,0,0,1-2.92,12.08,16.2,16.2,0,0,1-10.87,6.58,25.33,25.33,0,0,1-12-1.34Z" transform="translate(68.11 59.47)"/></g><polygon class="cls-8" points="221.54 245.19 248.69 240.76 250.25 250.36 234.2 252.98 235.63 261.75 250.59 259.32 252.11 268.61 237.15 271.04 238.82 281.29 254.87 278.68 256.46 288.41 229.3 292.83 221.54 245.19"/><polygon class="cls-9" points="221.54 245.19 248.69 240.76 250.25 250.36 234.2 252.98 235.63 261.75 250.59 259.32 252.11 268.61 237.15 271.04 238.82 281.29 254.87 278.68 256.46 288.41 229.3 292.83 221.54 245.19"/><g class="cls-4"><path class="cls-8" d="M184.58,180.64l11.3-1.84L203.77,193q3.53,6.33,5.62,11L210,204l-1.58-8-3-18.68L216,175.52l7.77,47.65L212.49,225l-7.89-14.22q-3.53-6.33-5.62-11.07l-.62.1,1.59,8L203,226.55l-10.66,1.74Z" transform="translate(68.11 59.47)"/><path class="cls-9" d="M184.58,180.64l11.3-1.84L203.77,193q3.53,6.33,5.62,11L210,204l-1.58-8-3-18.68L216,175.52l7.77,47.65L212.49,225l-7.89-14.22q-3.53-6.33-5.62-11.07l-.62.1,1.59,8L203,226.55l-10.66,1.74Z" transform="translate(68.11 59.47)"/><path class="cls-8" d="M251.81,217.37a18.66,18.66,0,0,1-7.54,3.23q-8,1.31-13.92-4.92T222.77,199a36.35,36.35,0,0,1,0-12.49,20.33,20.33,0,0,1,4.8-10.2,15.41,15.41,0,0,1,9.21-5,18.07,18.07,0,0,1,7.56.56l1.78,10.89a8.33,8.33,0,0,0-6.24-1.72q-3.87.63-5.46,4.89t-.41,11.64q1,6.31,3.89,9.76c1.91,2.3,4.09,3.24,6.55,2.84q2.7-.44,5.56-3.53Z" transform="translate(68.11 59.47)"/><path class="cls-9" d="M251.81,217.37a18.66,18.66,0,0,1-7.54,3.23q-8,1.31-13.92-4.92T222.77,199a36.35,36.35,0,0,1,0-12.49,20.33,20.33,0,0,1,4.8-10.2,15.41,15.41,0,0,1,9.21-5,18.07,18.07,0,0,1,7.56.56l1.78,10.89a8.33,8.33,0,0,0-6.24-1.72q-3.87.63-5.46,4.89t-.41,11.64q1,6.31,3.89,9.76c1.91,2.3,4.09,3.24,6.55,2.84q2.7-.44,5.56-3.53Z" transform="translate(68.11 59.47)"/></g><polygon class="cls-8" points="315.89 229.81 343.05 225.38 344.61 234.98 328.56 237.6 329.99 246.38 344.95 243.94 346.46 253.23 331.5 255.67 333.17 265.91 349.23 263.3 350.81 273.03 323.66 277.46 315.89 229.81"/><polygon class="cls-9" points="315.89 229.81 343.05 225.38 344.61 234.98 328.56 237.6 329.99 246.38 344.95 243.94 346.46 253.23 331.5 255.67 333.17 265.91 349.23 263.3 350.81 273.03 323.66 277.46 315.89 229.81"/><rect class="cls-8" x="108.26" y="145.1" width="8.95" height="38.08" transform="translate(43.18 79.74) rotate(-9.26)"/><rect class="cls-9" x="108.26" y="145.1" width="8.95" height="38.08" transform="translate(43.18 79.74) rotate(-9.26)"/><polygon class="cls-8" points="200.82 201.06 209.6 199.63 214.48 229.54 226.55 227.57 227.8 235.25 206.95 238.65 200.82 201.06"/><polygon class="cls-9" points="200.82 201.06 209.6 199.63 214.48 229.54 226.55 227.57 227.8 235.25 206.95 238.65 200.82 201.06"/><g class="cls-4"><path class="cls-8" d="M167.39,135.31A13,13,0,0,1,179,138.7q4.77,4.52,6.22,13.42T183.57,167a12.44,12.44,0,0,1-9.4,7,11.56,11.56,0,0,1-11-3.87q-4.48-4.95-5.83-13.19a28.75,28.75,0,0,1,.08-10.53,15.45,15.45,0,0,1,3.78-7.7,11,11,0,0,1,6.22-3.43m2.23,7.77c-1.76.28-2.94,1.52-3.54,3.7a20.46,20.46,0,0,0-.05,8.55,21.72,21.72,0,0,0,2.73,8.2q1.86,2.83,4.26,2.44t3.29-3.77a20.77,20.77,0,0,0,.05-8.64q-.88-5.43-2.8-8.13t-3.94-2.35" transform="translate(68.11 59.47)"/><path class="cls-9" d="M167.39,135.31A13,13,0,0,1,179,138.7q4.77,4.52,6.22,13.42T183.57,167a12.44,12.44,0,0,1-9.4,7,11.56,11.56,0,0,1-11-3.87q-4.48-4.95-5.83-13.19a28.75,28.75,0,0,1,.08-10.53,15.45,15.45,0,0,1,3.78-7.7,11,11,0,0,1,6.22-3.43m2.23,7.77c-1.76.28-2.94,1.52-3.54,3.7a20.46,20.46,0,0,0-.05,8.55,21.72,21.72,0,0,0,2.73,8.2q1.86,2.83,4.26,2.44t3.29-3.77a20.77,20.77,0,0,0,.05-8.64q-.88-5.43-2.8-8.13t-3.94-2.35" transform="translate(68.11 59.47)"/></g><polygon class="cls-8" points="250.08 193.04 259.48 191.5 267.66 215.53 267.92 190.13 277.45 188.58 274.04 227.71 265.37 229.13 250.08 193.04"/><polygon class="cls-9" points="250.08 193.04 259.48 191.5 267.66 215.53 267.92 190.13 277.45 188.58 274.04 227.71 265.37 229.13 250.08 193.04"/><polygon class="cls-8" points="280.54 188.07 301.95 184.58 303.19 192.15 290.53 194.22 291.66 201.14 303.45 199.22 304.65 206.54 292.85 208.47 294.17 216.55 306.83 214.49 308.08 222.16 286.66 225.66 280.54 188.07"/><polygon class="cls-9" points="280.54 188.07 301.95 184.58 303.19 192.15 290.53 194.22 291.66 201.14 303.45 199.22 304.65 206.54 292.85 208.47 294.17 216.55 306.83 214.49 308.08 222.16 286.66 225.66 280.54 188.07"/><polygon class="cls-8" points="194.58 306.97 208.03 304.77 208.83 309.64 201 310.91 201.82 315.93 209.06 314.75 209.82 319.46 202.59 320.64 204.15 330.2 198.52 331.11 194.58 306.97"/><polygon class="cls-9" points="194.58 306.97 208.03 304.77 208.83 309.64 201 310.91 201.82 315.93 209.06 314.75 209.82 319.46 202.59 320.64 204.15 330.2 198.52 331.11 194.58 306.97"/><polygon class="cls-8" points="210.07 304.44 223.83 302.2 224.62 307.06 216.49 308.39 217.21 312.84 224.79 311.6 225.56 316.31 217.98 317.55 218.82 322.74 226.96 321.42 227.76 326.35 214 328.59 210.07 304.44"/><polygon class="cls-9" points="210.07 304.44 223.83 302.2 224.62 307.06 216.49 308.39 217.21 312.84 224.79 311.6 225.56 316.31 217.98 317.55 218.82 322.74 226.96 321.42 227.76 326.35 214 328.59 210.07 304.44"/><g class="cls-4"><path class="cls-8" d="M161.05,259.24q3.21,2.14,5.68,1.74a3.12,3.12,0,0,0,2-1.16,2.59,2.59,0,0,0,.58-2.12,2.43,2.43,0,0,0-.91-1.56,8.89,8.89,0,0,0-2.72-1.23,12.33,12.33,0,0,1-4.33-2.17,5.75,5.75,0,0,1-2-3.68,7,7,0,0,1,1.29-5.42,7.73,7.73,0,0,1,5.25-3,11.35,11.35,0,0,1,5.18.47l.94,5.77a6.61,6.61,0,0,0-4.74-1.49,2.73,2.73,0,0,0-1.69.92,1.87,1.87,0,0,0-.52,1.63,2,2,0,0,0,.86,1.38,7.61,7.61,0,0,0,2.47,1,12.2,12.2,0,0,1,4.58,2.1,6.24,6.24,0,0,1,2.09,4,7.85,7.85,0,0,1-1.48,6.12,8.14,8.14,0,0,1-5.51,3.33,12.8,12.8,0,0,1-6.08-.67Z" transform="translate(68.11 59.47)"/><path class="cls-9" d="M161.05,259.24q3.21,2.14,5.68,1.74a3.12,3.12,0,0,0,2-1.16,2.59,2.59,0,0,0,.58-2.12,2.43,2.43,0,0,0-.91-1.56,8.89,8.89,0,0,0-2.72-1.23,12.33,12.33,0,0,1-4.33-2.17,5.75,5.75,0,0,1-2-3.68,7,7,0,0,1,1.29-5.42,7.73,7.73,0,0,1,5.25-3,11.35,11.35,0,0,1,5.18.47l.94,5.77a6.61,6.61,0,0,0-4.74-1.49,2.73,2.73,0,0,0-1.69.92,1.87,1.87,0,0,0-.52,1.63,2,2,0,0,0,.86,1.38,7.61,7.61,0,0,0,2.47,1,12.2,12.2,0,0,1,4.58,2.1,6.24,6.24,0,0,1,2.09,4,7.85,7.85,0,0,1-1.48,6.12,8.14,8.14,0,0,1-5.51,3.33,12.8,12.8,0,0,1-6.08-.67Z" transform="translate(68.11 59.47)"/></g><polygon class="cls-8" points="240.57 299.47 255.82 296.99 256.62 301.88 251.72 302.68 254.86 321.93 249.23 322.85 246.09 303.6 241.37 304.37 240.57 299.47"/><polygon class="cls-9" points="240.57 299.47 255.82 296.99 256.62 301.88 251.72 302.68 254.86 321.93 249.23 322.85 246.09 303.6 241.37 304.37 240.57 299.47"/><rect class="cls-8" x="192.6" y="236.41" width="5.75" height="24.47" transform="translate(30.64 94.17) rotate(-9.26)"/><rect class="cls-9" x="192.6" y="236.41" width="5.75" height="24.47" transform="translate(30.64 94.17) rotate(-9.26)"/><polygon class="cls-8" points="266.11 295.31 272.15 294.33 277.4 309.76 277.57 293.44 283.7 292.44 281.5 317.59 275.93 318.5 266.11 295.31"/><polygon class="cls-9" points="266.11 295.31 272.15 294.33 277.4 309.76 277.57 293.44 283.7 292.44 281.5 317.59 275.93 318.5 266.11 295.31"/><path class="cls-8" d="M219,232.42l5.6-.91,10.3,23.11-6.13,1L227.11,251l-4.63.76-.1,4.94-5.77.94Zm3.76,6.16-.17,8.68,3.06-.5Z" transform="translate(68.11 59.47)"/><path class="cls-9" d="M219,232.42l5.6-.91,10.3,23.11-6.13,1L227.11,251l-4.63.76-.1,4.94-5.77.94Zm3.76,6.16-.17,8.68,3.06-.5Z" transform="translate(68.11 59.47)"/><polygon class="cls-8" points="301.21 289.59 306.85 288.67 309.98 307.88 317.74 306.62 318.54 311.55 305.14 313.74 301.21 289.59"/><polygon class="cls-9" points="301.21 289.59 306.85 288.67 309.98 307.88 317.74 306.62 318.54 311.55 305.14 313.74 301.21 289.59"/></g></g></svg>