<?xml version="1.0" encoding="utf-8"?>
<!-- Generator: Adobe Illustrator 23.0.3, SVG Export Plug-In . SVG Version: 6.00 Build 0)  -->
<svg version="1.1" id="Calque_1" xmlns="http://www.w3.org/2000/svg" xmlns:xlink="http://www.w3.org/1999/xlink" x="0px" y="0px"
	 viewBox="0 0 510 520" style="enable-background:new 0 0 510 520;" xml:space="preserve">
<defs>
    <filter id="f1" x="0" y="0" width="200%" height="200%">
      <feOffset result="offOut" in="SourceAlpha" dx="10" dy="15" />
      <feGaussianBlur result="blurOut" in="offOut" stdDeviation="10" />
      <feBlend in="SourceGraphic" in2="blurOut" mode="normal" />
    </filter>
  </defs>
<style type="text/css">
	.st0{fill:#FFFFFF;}
	.st1{fill:none;stroke:#C43260;stroke-width:15.66;stroke-miterlimit:10;}
	.st2{fill:#C43260;}
</style>
<title>logo_1</title>
<g>
	<g>
		<g>
			<g id="Calque_1-2_9_">
				<path class="st0" d="M247.1,7.8c132.1,0,239.2,107.1,239.2,239.2S379.2,486.3,247.1,486.3S7.8,379.2,7.8,247.1
					S114.9,7.8,247.1,7.8" filter="url(#f1)"/>
				<path class="st1" d="M247.1,7.8c132.1,0,239.2,107.1,239.2,239.2S379.2,486.3,247.1,486.3S7.8,379.2,7.8,247.1
					S114.9,7.8,247.1,7.8"/>
				<path class="st2" d="M486.4,246.8c0-14.5-1.3-29.1-3.9-43.4c-101.8,160.5-318.1,80-467.5,101c25.8,104.3,120,181.6,232.2,181.6
					C379.2,486.1,486.4,379,486.4,246.8z"/>
				<path class="st2" d="M390.9,200.3l0.3-22.9l-22.8,7c0,0,2.4,10.9,3.4,14.6c0.9,3.4,3.1,5.4,6.5,4.8
					C382.7,202.8,390.9,200.3,390.9,200.3 M384.4,69.3l-28.3,5.9l15.6,91.3l13.4-3.8L384.4,69.3z M352.1,205.4l-6.5-27.7
					c-2,0.9-4.2,1.5-6.5,1.7c-7.1,0.6-11.5-2.1-12.1-9.8l-2.6-29.4l21.4-1.9l-6.7-27.3l-17.2,1.5l-2.9-32.7l-33.7,8.4l2.4,27.2
					l-12,1l2.4,27.6l12-1.1l3,34.8c2.3,26.5,18.7,33.2,40.7,31.3C342.3,208.6,346.8,207.4,352.1,205.4 M237.9,189.8
					c-4,3.6-7.3,5.5-11,5.8c-4.2,0.4-7.6-2.1-8.1-7.5c-0.7-7.7,3.7-13.6,17.3-17.9L237.9,189.8z M274.4,213.2l-5.5-63
					c-2.2-25.7-16.9-33-44.5-30.6c-16,1.4-28.7,5.4-39,10.6l6.1,24.8c9.7-5.1,19.1-8.5,29.4-9.4c9.3-0.8,13.2,2.3,13.9,9.3l0.1,0.8
					c-36,6.3-51.1,18.7-49.2,40.5c1.6,17.8,13.1,25.5,27.6,24.2c11.8-1,20-7,27.4-16l2.9,11.4L274.4,213.2z M141.6,168.8l-23.4,2
					c-1-13.9,2.8-21.3,9.8-21.9C135,148.3,140,154.9,141.6,168.8 M174.6,174.2c-2.5-28.2-17.3-49.1-47.5-46.5
					c-26.7,2.3-44.5,23-41.8,54.5c2.9,33.6,25.2,47.2,55.5,44.6c13.3-1.1,26.2-5.6,37.2-13.2l-5.1-22.5
					c-10.1,6.3-20.3,10.5-29.6,11.4c-11.2,1-20.1-2.3-23-14.1l54.5-4.8C175.1,180.5,175,177.4,174.6,174.2"/>
				<path class="st2" d="M369.5,261.9c4.3,1.6,8.9,2.2,13.5,1.7c12.8-1.1,18.2-8.3,17.5-16.1c-0.6-6.6-4.7-10.5-13.2-12.8
					c-6.3-1.8-9-2.8-9.2-5.8c-0.2-2.4,1.8-4.7,6.4-5.1c3.3-0.3,6.7,0.2,9.9,1.4l1.6-8.6c-3.9-1.3-8-1.8-12.1-1.3
					c-10.9,1-17.1,7.6-16.4,15.5c0.6,6.8,6.1,10.6,14.1,12.7c5.8,1.4,8.1,2.9,8.4,5.8s-2.1,5.3-7,5.7c-4.1,0.3-8.1-0.4-11.9-1.9
					L369.5,261.9z M336.2,267.1l29-2.5l-0.8-8.8l-18.5,1.6l-3.3-37.8l-10.5,0.9L336.2,267.1z M324.5,239.6l-17.1,1.5l-0.8-9.7
					l18.2-1.6l-0.8-8.6l-28.7,2.5l4.1,46.6l29.6-2.6l-0.8-8.6l-19.2,1.7l-1-11.1l17.1-1.5L324.5,239.6z M259.9,271.5
					c4.3,1.6,8.9,2.2,13.5,1.8c12.8-1.1,18.2-8.3,17.5-16.1c-0.6-6.6-4.8-10.5-13.2-12.8c-6.3-1.8-9-2.8-9.2-5.8
					c-0.2-2.4,1.8-4.7,6.4-5.1c3.3-0.3,6.7,0.2,9.9,1.4l1.6-8.6c-3.9-1.3-8-1.8-12.1-1.3c-10.9,0.9-17.1,7.6-16.4,15.5
					c0.6,6.8,6.1,10.6,14.1,12.7c5.8,1.5,8.1,2.9,8.4,5.8c0.2,2.9-2.1,5.3-7,5.7c-4.1,0.3-8.1-0.3-11.9-1.9L259.9,271.5z
					 M222.6,274.8c4.3,1.6,8.9,2.2,13.4,1.7c12.8-1.1,18.1-8.3,17.5-16.1c-0.6-6.6-4.7-10.5-13.2-12.8c-6.3-1.8-8.9-2.8-9.2-5.8
					c-0.2-2.4,1.8-4.7,6.4-5.1c3.4-0.3,6.7,0.2,9.9,1.4l1.6-8.6c-3.9-1.3-8-1.8-12.1-1.3c-10.9,1-17.1,7.6-16.4,15.5
					c0.6,6.8,6.1,10.6,14.1,12.7c5.8,1.5,8.1,2.9,8.4,5.8s-2.1,5.3-7,5.7c-4,0.3-8.1-0.4-11.8-1.9L222.6,274.8z M173.4,234.3l2.3,26
					c1.3,14.8,8.7,20.8,20.5,19.7c12.2-1.1,18.8-8.5,17.6-22.9l-2.3-26.2l-10.5,0.9l2.3,26.8c0.7,8.3-2,12.4-7.5,12.9
					c-5.3,0.5-8.8-3.3-9.5-11.4l-2.3-26.8L173.4,234.3z M143.8,244.9c1.5-0.4,3.1-0.7,4.7-0.8c4.9-0.4,7.9,1.5,8.3,5.8
					c0.4,4.1-2.5,7-7.8,7.4l-4.1,0.4L143.8,244.9z M136.8,284.5l10.4-0.9l-1.6-18.3l3.1-0.3c4.4-0.3,6.5,1,8.3,6.8s3.3,9.2,4.1,10.6
					l10.8-0.9c-1.1-1.7-3-7.7-4.9-12.9c-1.6-4.2-3.6-7.1-7-8.1v-0.2c4.7-2.1,7.6-7,7.2-12.1c-0.4-4.3-2.2-7.5-5.2-9.4
					c-3.6-2.4-8.5-3-15.4-2.4c-4.7,0.4-9.4,1.1-13.9,2.2L136.8,284.5z M103.7,266.6l3.6-0.3c5.3-0.5,9.6,1,10,5.7
					c0.4,4.9-3.6,7.1-8.4,7.6c-1.4,0.2-2.7,0.2-4.1,0.2L103.7,266.6z M102.1,248.3c1.5-0.3,3-0.6,4.5-0.7c4.8-0.4,7.6,1.2,7.9,4.7
					s-2.4,6-8,6.5l-3.4,0.3L102.1,248.3z M95,288c3.8,0.2,7.7,0.1,11.5-0.3c9.3-0.8,14.8-2.8,17.9-5.8c2.9-2.6,4.4-6.5,4-10.4
					c-0.5-6-4.8-9.7-10.2-10.6v-0.1c5.1-2.5,7.2-6.5,6.8-10.6c-0.3-3.9-2.7-7.3-6.3-8.7c-3.6-1.7-7.6-2-14-1.4
					c-4.6,0.4-9.1,1.1-13.6,2.1L95,288z"/>
				<path class="st0" d="M176.4,439.5c-1.9,1.6-4.6,2.6-8.2,2.9l-10,0.9l-2.6-29.9l10.1-0.9c3.4-0.3,6,0.2,7.8,1.4
					c1.8,1.3,2.9,3.3,3,5.5c0.2,1.4-0.1,2.9-0.9,4.1c-0.7,1.1-1.7,2-2.8,2.6c1.5,0.3,3,1,4.1,2.1c1.2,1.2,1.9,2.9,1.9,4.6
					C179.3,435.2,178.3,437.8,176.4,439.5z M168.9,418.5c-1-0.6-2.1-0.8-3.2-0.6l-2.6,0.2l0.6,6.7l2.5-0.2c1.1,0,2.2-0.5,3.1-1.2
					c0.7-0.7,1-1.7,0.9-2.6C170.1,419.9,169.7,419,168.9,418.5L168.9,418.5z M170.4,430c-1.1-0.6-2.4-0.9-3.6-0.7l-2.6,0.2l0.7,7.7
					l2.7-0.2c1.2,0,2.4-0.5,3.4-1.2c0.8-0.8,1.2-1.9,1-2.9C171.9,431.7,171.3,430.6,170.4,430z"/>
				<path class="st0" d="M209.4,430c-0.5,1.9-1.3,3.6-2.4,5.2c-1.1,1.5-2.6,2.7-4.2,3.6c-1.8,0.9-3.8,1.5-5.8,1.6
					c-2,0.2-4,0-5.9-0.6c-1.8-0.6-3.4-1.5-4.8-2.8c-1.4-1.3-2.5-2.9-3.3-4.6c-0.9-2-1.4-4.1-1.6-6.2c-0.2-2.1-0.1-4.3,0.5-6.4
					c0.5-1.9,1.3-3.6,2.4-5.2c1.1-1.5,2.6-2.7,4.2-3.6c3.7-1.8,7.9-2.2,11.8-1c1.8,0.6,3.4,1.5,4.8,2.8c1.4,1.3,2.5,2.9,3.3,4.6
					c0.9,2,1.4,4.1,1.6,6.2C210,425.8,209.9,427.9,209.4,430z M200,417.4c-2.2-2.6-6.1-2.9-8.7-0.7c-0.5,0.5-1,1-1.4,1.6
					c-2,4.6-1.5,9.9,1.2,14.1c2.2,2.6,6.1,3,8.7,0.8c0.5-0.5,1-1,1.4-1.6C203.3,426.9,202.8,421.6,200,417.4z"/>
				<path class="st0" d="M238.9,435.2l-7.5,1.9l-7.4-10l-2,0.2l0.9,10.2l-7.4,0.6l-2.6-29.9l10.4-0.9c3.6-0.3,6.5,0.2,8.7,1.7
					c2.2,1.6,3.6,4.1,3.6,6.8c0.2,1.8-0.1,3.7-1,5.3c-0.9,1.6-2.2,2.8-3.8,3.6L238.9,435.2z M226.8,413.9c-1.1-0.7-2.5-1-3.8-0.8
					l-2.4,0.2l0.8,8.7l2.3-0.2c1.3,0,2.6-0.6,3.6-1.5c0.8-0.9,1.2-2.2,1-3.4C228.3,415.7,227.8,414.6,226.8,413.9L226.8,413.9z"/>
				<path class="st0" d="M266.4,424.8c-0.5,1.8-1.4,3.5-2.6,5c-1.3,1.5-2.9,2.7-4.6,3.5c-2.1,0.9-4.3,1.5-6.6,1.7l-10.5,0.9
					l-2.6-29.9l10.2-0.9c2.3-0.2,4.7-0.1,6.9,0.5c1.9,0.5,3.7,1.4,5.2,2.6c1.5,1.2,2.6,2.7,3.4,4.4
					C267,416.4,267.4,420.7,266.4,424.8L266.4,424.8z M258.5,415.3c-0.5-1-1.1-2-2-2.7c-0.8-0.7-1.8-1.2-2.9-1.4
					c-1.2-0.3-2.3-0.4-3.5-0.2l-2.7,0.2l1.6,18.3l2.7-0.2c1.2-0.1,2.4-0.4,3.5-0.8c1-0.4,1.8-1.1,2.5-1.9c0.7-0.9,1.2-1.9,1.5-3
					c0.3-1.4,0.4-2.8,0.2-4.2C259.3,417.9,259,416.6,258.5,415.3z"/>
				<path class="st0" d="M272.6,433.2l-2.6-29.9l18.6-1.6l0.5,5.9l-11.3,1l0.5,5.5l8.6-0.8l1.5,6l-9.6,0.8l0.6,6.4l11.7-1l0.5,5.9
					L272.6,433.2z"/>
				<path class="st0" d="M315.4,429.8l-2.8-6.3l-10.2,0.9l-1.5,6.4l-7.2,0.6l8.1-30.9l8.1-0.7l12.9,28.2L315.4,429.8z M306,407.8
					l-2.5,10.7l6.8-0.6L306,407.8z"/>
				<path class="st0" d="M348.3,420.1c-0.4,1.5-1.2,2.9-2.3,4.1c-1.1,1.1-2.3,2-3.8,2.6c-1.6,0.7-3.2,1.1-5,1.2
					c-1.7,0.2-3.4,0.1-5.1-0.3c-3.1-0.7-5.7-2.7-7-5.6c-0.8-1.7-1.3-3.5-1.4-5.4l-1.6-18l7.4-0.6l1.6,18c0,1.6,0.6,3.2,1.7,4.4
					c2.2,1.9,5.6,1.7,7.5-0.6c0,0,0-0.1,0.1-0.1c0.8-1.4,1.1-3,0.9-4.5l-1.6-18.1l7.5-0.6l1.6,18C349,416.5,348.9,418.3,348.3,420.1
					z"/>
				<path class="st0" d="M350.6,397.3l7.8-1.9l0.6,0.9c0.4,0.6,0.9,1.3,1.5,2.2s1.2,1.8,1.9,2.6l2.2,3.2l4.4-9.6l7.6-0.7l-7.5,14.9
					c1.1,1.3,2,2.5,2.8,3.6c0.8,1,1.6,2.2,2.6,3.4l2.6,3.4c0.8,1,1.7,2.2,2.8,3.6l-7.8,1.9l-7.1-10l-5,10.7l-7.6,0.7l8.1-16
					L350.6,397.3z"/>
				<path class="st0" d="M184.8,399.6l-1.4-5.7c-1.4,1.9-3.1,3.6-5,5.1c-2.1,1.6-4.6,2.6-7.3,2.7c-2.2,0.2-4.4,0-6.5-0.8
					c-2.1-0.7-3.9-2-5.4-3.5c-1.8-1.9-3.1-4.1-4-6.5c-2.3-6.6-2.8-13.8-1.5-20.7c0.6-2.8,1.8-5.5,3.5-7.8c1.5-2,3.4-3.6,5.6-4.7
					c2.2-1.1,4.6-1.7,7-1.9c1.8-0.2,3.6-0.2,5.4-0.1c1.4,0.1,2.8,0.3,4.2,0.7l-1.8-20.1l13.5-3.4l5.7,65.6L184.8,399.6z
					 M180.3,366.9c-1-0.4-2-0.6-3-0.8c-1.2-0.1-2.4-0.1-3.6,0c-2.3,0.2-4.3,1.4-5.5,3.3c-1.3,2-1.8,5.2-1.5,9.5
					c0.3,3.8,1.2,6.5,2.7,8c1.3,1.5,3.2,2.2,5.1,2.1c1.4-0.1,2.8-0.7,3.9-1.6c1.3-1.1,2.4-2.3,3.4-3.6L180.3,366.9z"/>
				<path class="st0" d="M223.8,366.7c-2.3,1.3-4.2,3.1-5.9,5.1l2.2,24.7l-13.7,1.2l-3.9-44.5l12-1l2.2,8.7c1.1-2.6,2.6-4.9,4.5-7
					c2-2.1,4.7-3.5,7.7-3.8l3.5,13.8C229.4,364.2,226.5,365.2,223.8,366.7z"/>
				<path class="st0" d="M248.8,341.3c-3,3-7.7,3.4-11.1,1c-1.6-1.2-2.6-3.1-2.7-5.2c-0.3-2.1,0.4-4.1,1.8-5.6c3-3,7.7-3.4,11.1-1
					c1.6,1.3,2.6,3.2,2.7,5.3C250.8,337.7,250.2,339.8,248.8,341.3z M240.9,394.7l-3.9-44.5l13.7-1.2l3.9,44.5L240.9,394.7z"/>
				<path class="st0" d="M290.3,390.4l-2.4-27.9c-0.1-1.4-0.5-2.7-1.4-3.8c-0.9-1-2.3-1.4-3.7-1.2c-1.4,0.1-2.7,0.6-3.8,1.4
					c-1.3,0.9-2.4,2-3.5,3.2l2.6,29.3l-13.7,1.2l-3.9-44.5l12.1-1.1l1.5,6c1.8-2,3.7-3.9,5.9-5.5c2.2-1.6,4.7-2.5,7.4-2.7
					c4.2-0.4,7.4,0.6,9.8,2.8c2.3,2.2,3.7,5.5,4.1,9.9l2.8,31.6L290.3,390.4z"/>
				<path class="st0" d="M339.9,386.7l-14.8-20.2l1.9,20.7l-13.7,1.2l-5.5-63.4l13.5-3.4l3.4,39.3l10.3-19.3l14.7-1.3l-12.3,21.5
					l16.5,21.6L339.9,386.7z"/>
				<path class="st0" d="M372.7,382l0.1-11l-11,3.4c0,0,1.2,5.2,1.6,7c0.4,1.6,1.5,2.6,3.1,2.3C368.8,383.2,372.7,382,372.7,382"/>
				<polygon class="st0" points="369.6,318.9 356,321.8 363.5,365.7 369.9,363.9 				"/>
			</g>
		</g>
	</g>
</g>
</svg>
